<svg xmlns="http://www.w3.org/2000/svg" width="577" height="386" viewBox="0 0 577 386">
    <g fill="none" fill-rule="evenodd">
        <path fill="#464646" fill-rule="nonzero" d="M193.259 359.183v10.609h64.2v1.58h-65.013c-.416 0-.76-.305-.807-.698l-.006-.092v-10.004l1.626-1.395zM454.94 369.747L454.809 371.373 341.166 371.373 341.166 369.747zM367.984 40.632l-.563 1.627H172.944v121.89c-.65 1.083-1.041 2.342-1.09 3.69l-.005.318c-.18.013-.357.032-.533.058V41.445c0-.417.315-.76.72-.808l.094-.005h195.854zM265.408 307.403l-1.149-1.149 2.873-2.873 1.15 1.15-2.874 2.872zm-4.436 5.686l-1.315-.956 2.388-3.287 1.315.956-2.388 3.287zm12.996-12.995l-3.288 2.388-.955-1.315 3.287-2.388.956 1.315zm-16.49 19.304l-1.447-.737 1.844-3.62 1.448.737-1.844 3.62zm22.8-22.797l-3.621 1.845-.738-1.449 3.62-1.844.738 1.448zm-25.262 29.576l-1.546-.503 1.256-3.864 1.546.502-1.256 3.865zm32.04-32.039l-3.864 1.256-.503-1.546 3.865-1.255.502 1.545zm-33.412 39.119l-1.605-.255.635-4.013 1.606.255-.636 4.013zm40.493-40.49l-4.014.635-.254-1.605 4.013-.636.255 1.605zm-40.74 47.697h-1.626v-4.063h1.626v4.063zm47.947-47.945h-4.063v-1.625h4.063v1.625zm-47.064 55.103l-1.606.254-.635-4.013 1.605-.254.636 4.013zm54.222-54.22l-4.013-.636.254-1.605 4.014.636-.255 1.605zm-52.23 61.15l-1.546.503-1.256-3.864 1.546-.502 1.256 3.864zm3.051 6.535l-1.448.738-1.844-3.62 1.448-.738 1.844 3.62zm4.037 5.977l-1.315.955-2.388-3.287 1.315-.956 2.388 3.288zm3.772 6.42l-2.873-2.873 1.15-1.15 2.873 2.874-1.15 1.15zm5.88 4.603l-3.287-2.389.955-1.315 3.288 2.389-.956 1.315zm6.528 3.625l-3.62-1.844.737-1.448 3.62 1.844-.737 1.448zm63.055-63.051l-1.448.737-1.845-3.62 1.448-.738 1.845 3.62zm-56.041 65.612l-3.865-1.256.503-1.546 3.864 1.256-.502 1.546zm58.601-58.599l-1.546.503-1.255-3.865 1.546-.502 1.255 3.864zm1.432 7.328l-1.606.255-.635-4.013 1.605-.255.636 4.013zm-52.705 52.702l-4.013-.636.254-1.605 4.014.636-.255 1.605zm52.972-45.24h-1.625v-4.063h1.625v4.063zm-45.51 45.508h-4.063v-1.626h4.063v1.626zm44.607-38.096l-1.605-.254.635-4.013 1.606.254-.636 4.013zm-37.194 37.192l-4.014.636-.254-1.605 4.013-.636.255 1.605zm35.143-30.013l-1.546-.502 1.255-3.864 1.546.502-1.255 3.864zm-27.964 27.962l-3.864 1.256-.503-1.546 3.865-1.256.502 1.546zm24.814-21.192l-1.448-.738 1.845-3.62 1.448.738-1.845 3.62zm-18.044 18.043l-3.62 1.844-.738-1.448 3.62-1.844.738 1.448zm6.195-4.17l-3.288 2.389-.955-1.315 3.287-2.389.956 1.315zm7.68-7.68l-1.315-.954 2.388-3.288 1.315.956-2.389 3.287zm-5.088 5.466l-1.15-1.149 2.874-2.873 1.15 1.15-2.874 2.872z"/>
        <path fill="#FFF361" d="M322.068 284.421h39.008c8.303 0 15.035 6.73 15.035 15.034v1.625c0 8.303-6.732 15.034-15.035 15.034h-39.008c-8.304 0-15.035-6.731-15.035-15.034v-1.625c0-8.303 6.731-15.034 15.035-15.034z"/>
        <path fill="#F94B4B" d="M49.132 287.954L32.755 337.084 0 304.331z"/>
        <path fill="#FF74B2" fill-rule="nonzero" d="M187.163 52.821c-2.02 0-3.657 1.638-3.657 3.657 0 2.02 1.637 3.657 3.657 3.657s3.657-1.638 3.657-3.657c0-2.02-1.636-3.657-3.657-3.657z"/>
        <path fill="#001CFF" fill-rule="nonzero" d="M199.354 52.821c-2.021 0-3.657 1.638-3.657 3.657s1.636 3.657 3.657 3.657c2.02 0 3.657-1.638 3.657-3.657s-1.637-3.657-3.657-3.657z"/>
        <path fill="#464646" fill-rule="nonzero" d="M211.544 52.821c-2.021 0-3.657 1.638-3.657 3.657s1.636 3.657 3.657 3.657c2.02 0 3.657-1.638 3.657-3.657s-1.637-3.657-3.657-3.657zm-.03 1.59c1.122 0 2.032.909 2.032 2.032 0 1.122-.91 2.031-2.031 2.031s-2.032-.909-2.032-2.031c0-1.123.91-2.032 2.032-2.032z"/>
        <path fill="#FF7FB1" d="M448.148 9.752L483.384 22.269 472.297 54.446 437.061 41.929z"/>
        <path fill="#464646" fill-rule="nonzero" d="M524.018 183.655L524.018 185.28 318.345 185.28 318.345 228.357 270.827 228.356 270.827 268.966 226.407 268.966 226.407 308.008 183.506 308.008 183.506 355.12 181.881 355.12 181.881 306.383 224.781 306.382 224.781 267.341 269.201 267.34 269.201 226.731 316.719 226.731 316.72 183.655zM536.992 290.922L536.991 333.641 576.029 333.641 576.029 368.199 574.404 368.199 574.404 335.267 535.367 335.267 535.366 292.547 488.26 292.547 488.26 290.922z"/>
        <g>
            <path fill="#001CFF" fill-rule="nonzero" d="M7.845 101.579l.193.005 11.466.522-.581 9.27c-.584 1.244-1.114 2.497-1.5 3.784l-.166.57c-.27.956-.484 1.94-.386 2.91L0 140.584l6.21-26.362-3.869-.174.488-7.777c.167-2.661 2.38-4.712 5.016-4.693zM89.394 114.581L90.612 114.648 121.089 134.897 101.301 130.868z" transform="matrix(-1 0 0 1 462.254 57.697)"/>
            <path fill="#FF7FB1" fill-rule="nonzero" d="M113.184 67.822c1.18 1.211 1.958 2.65 2.35 4.162.942 1.275 1.454 2.818 1.838 4.36.378 1.513.648 3.103.316 4.628-.289 1.327-1.008 2.5-1.798 3.615l-.234.326c-1.03-1.038-1.846-2.152-2.623-3.537-1.505-2.683-2.237-4.642-2.291-6.642-.028-1.019.125-2.064.462-3.335l.097-.352.182-.619.096-.31.694-2.133.244-.785c.23.195.453.402.667.622z" transform="matrix(-1 0 0 1 462.254 57.697)"/>
            <path fill="#464646" fill-rule="nonzero" d="M145.397 29.807l-.559 1.177.24 6.803h-2.929c-1.435 3.79-1.086 7.781-5.074 6.82l-15.818-5.519-6.162 4.084-3.1 7.08c1.245 1.382 1.85 2.324 2.248 3.616.424 1.379.416 2.734.132 4.819-.39 2.865-1.008 5.7-1.845 8.47l-.257.828-.694 2.133-.096.31-.182.619c-.404 1.432-.59 2.576-.56 3.687.055 2 .787 3.96 2.292 6.642 1.7 3.029 3.584 4.758 7.483 7.242l2.864 1.795.588.374c1.288.825 2.028 1.343 2.881 2.01l.185.146 2.647 2.132.539.447c.94.79 1.634 1.436 2.292 2.146 1.3 1.403 2.195 2.83 2.685 4.42.312 1.012.388 2.16.272 3.368l2.218 1.094c2.407 1.188 4.811 2.38 7.214 3.574l3.964 1.974 3.96 1.979c.453.227.924.459 1.43.475.414.014.813-.117 1.2-.277l.383-.166c5.391-2.374 11.327-3.494 17.209-3.248.291.012.591.03.854.158.834.405.783 1.733.106 2.369-.632.593-1.552.728-2.426.745h-.887c-.703.002-1.406.04-2.036.338-.146.068-.29.154-.39.282-.285.368-.07.945.313 1.211.383.266.87.31 1.333.371 3.115.406 6.077 1.905 8.254 4.176.171.179.346.378.382.624.068.465-.416.857-.883.887-.468.029-.91-.19-1.34-.377-2.047-.896-4.346-1.205-6.557-.88-.272.04-.581.118-.7.365-.231.481.438.837.983.935l.095.014c2.316.293 4.578 1.014 6.637 2.117.412.22.832.47 1.089.862.257.391.299.964-.026 1.301-.417.434-1.098.259-1.677.014l-.233-.104c-2-.93-4.175-1.477-6.376-1.603-.733-.042-1.756.28-1.61 1.002.076.382.458.582.843.71l.217.067c1.75.49 3.476 1.066 5.171 1.723.536.208 1.1.449 1.428.922.327.474.28 1.252-.237 1.505-.298.145-.645.08-.97-.01l-6.051-1.791c-.542-.161-1.288-.235-1.52.283-.27.608.508 1.089 1.162 1.299l.102.03c1.072.305 2.112.72 3.098 1.236.582.305 1.235.893.97 1.495-.268.607-1.124.498-1.768.269l-.112-.042c-3.604-1.408-7.354-2.44-11.171-3.072l-1.577-.257-.587-.1-.586-.11c-2.142-.415-4.216-1.05-5.73-2.564-.654-.653-1.173-1.448-1.914-1.999-.688-.511-1.521-.778-2.338-1.037l-17.653-5.585c-.66-.209-1.32-.418-1.977-.633-.598.168-1.2.233-1.798.179-3.186-.29-6.617-1.008-8.322-2.003-6.415-3.745-11.222-10.398-16.883-21.854l-.569-1.161-.566-1.175-3.754-8.009-.837-1.762-.687-1.416c-.147-.299-.29-.588-.431-.87l-.347-.688-.365-.71-.212.17-.294.245c-1.334 1.137-2.816 2.774-5.062 5.523l-1.33 1.645-2.143 2.683-.975 1.21-.772.944c-2.563 3.11-4.142 4.757-5.769 5.951l-.278.2-.278.19-.638.424-.643.42-.6.38c-2.035 1.27-3.387 1.88-5.098 2.253-2.462.536-4.558.33-8.48-.582l-.81-.192-27.1-6.53c-1.093-.278-1.694-.56-2.218-1.199-.93-1.136-.788-2.53-.041-4.352 5.775-14.084 15.605-26.865 28.488-37.733 5.677-4.789 11.906-9.187 18.64-13.203l4.842-2.861.929-.536c7.312-4.177 11.895-5.787 17.465-5.456 1.168.07 2.02.247 2.74.686l1.326-.245c1.018 2.003 2.82 3.558 5.05 4.208.803 3.263 3.506 5.845 6.998 6.275 4.533.557 8.665-2.718 9.229-7.314.124-1.014.055-2.004-.162-2.942 2.202-.479 4.115-1.852 5.3-3.771 3.27.302 6.298-1.373 7.886-4.087.942.557 2.008.935 3.16 1.077 2.02.248 3.96-.264 5.54-1.315.787 2.937.672 6.085-1.486 9.103z" transform="matrix(-1 0 0 1 462.254 57.697)"/>
            <path fill="#FF7FB1" fill-rule="nonzero" d="M92.193 78.538l.365.71.347.688.43.87.688 1.416.837 1.762 3.754 8.009.566 1.175.57 1.161c.588 1.191 1.167 2.33 1.74 3.42-.863.801-1.741 1.587-2.623 2.369L86.681 110.9l15.06 20.392c.417.565.767 1.173 1.046 1.81.216.434.396.893.532 1.38 1.157 4.125-.244 9.253-3.076 12.46-1.858 2.104-5.172 3.223-7.884 3.923-2.37.613-4.88.14-7.24-.517-12.161-3.381-22.446-11.35-33.58-17.315-8.027-4.3-16.653-7.608-25.649-8.964l-1.234-.182c-1.374-.207-2.743-.453-4.01-1.01-1.648-.722-3.135-2.082-3.492-3.853-.263-1.305.11-2.645.492-3.921.527-1.761 1.323-3.459 2.16-5.159l.84-1.703c2.488-5.08 5.78-5.862 10.845-4.11l1.574.564c-.415-.708-.736-1.472-.951-2.274l-.086-.346L30.34 94.7c-.143-.626-.22-1.248-.237-1.861.362.245.796.414 1.38.574l.227.06 27.102 6.53.809.192.76.173c3.443.763 5.422.91 7.72.409 1.616-.352 2.912-.916 4.765-2.047l.333-.206.6-.38.643-.42.638-.424.278-.19.278-.2.325-.245c1.354-1.05 2.723-2.46 4.703-4.816l.74-.89.773-.945.975-1.209 2.142-2.683 1.33-1.645.722-.876c1.776-2.137 3.046-3.518 4.192-4.519l.149-.128.294-.245.212-.17z" transform="matrix(-1 0 0 1 462.254 57.697)"/>
            <path fill="#FFF361" d="M143.385 5.373c-.875-.107-1.734-.069-2.557.09-1.06-2.79-3.564-4.91-6.7-5.295-2.887-.355-5.607.848-7.35 2.953-1.26-1.292-2.94-2.184-4.861-2.42-4.533-.557-8.665 2.718-9.228 7.314l-.003.03c-4.292-.212-8.09 2.964-8.63 7.357-.186 1.518.048 2.986.598 4.297-.85 1.14-1.432 2.508-1.618 4.026-.508 4.145 2.063 7.94 5.896 9.056.803 3.263 3.506 5.845 6.998 6.275 4.533.557 8.665-2.718 9.229-7.314.124-1.014.055-2.004-.162-2.942 2.202-.479 4.115-1.852 5.3-3.771 3.27.302 6.298-1.373 7.886-4.087.942.557 2.008.935 3.16 1.077 4.533.557 8.665-2.718 9.229-7.314.563-4.596-2.654-8.774-7.187-9.332z" transform="matrix(-1 0 0 1 462.254 57.697)"/>
            <path fill="#FFF" fill-rule="nonzero" d="M99.947 29.92l-.236-.016-.308-.016c-5.322-.242-9.845 1.518-17.544 6.035l-4.427 2.619c-6.632 3.96-12.764 8.291-18.35 13.003-12.675 10.693-22.33 23.247-27.99 37.05-.517 1.26-.602 2.097-.229 2.553.213.26.562.42 1.307.61l27.443 6.611.762.177.713.158c2.99.645 4.725.754 6.637.338 1.617-.352 2.922-.981 5.136-2.406l.613-.4.621-.412c1.802-1.206 3.494-2.977 6.705-6.928l.768-.952 2.607-3.261.797-.987.547-.67c2.575-3.135 4.167-4.821 5.772-6.033l.303-.223.416-.288c.436-.291 1.028-.143 1.274.32l.507.965.375.732c.57 1.122 1.172 2.356 1.863 3.81l.66 1.397 2.515 5.384 1.29 2.723.558 1.148c5.64 11.511 10.342 18.11 16.472 21.688 1.41.824 4.654 1.503 7.59 1.77 4.374.397 9.884-8.955 8.39-13.807-.404-1.31-1.16-2.516-2.291-3.737-.714-.77-1.495-1.476-2.667-2.436l-.57-.463-2.178-1.748-.527-.405-.395-.29c-.47-.337-.982-.683-1.656-1.117l-.554-.355-3.125-1.96-.748-.484c-3.625-2.383-5.552-4.247-7.306-7.372-1.634-2.913-2.453-5.106-2.517-7.463-.036-1.322.177-2.634.629-4.232l.148-.507.137-.444.077-.242.444-1.358.429-1.357c.81-2.68 1.407-5.422 1.785-8.195.252-1.847.259-2.99-.07-4.056-.36-1.173-.997-2.047-2.543-3.676l-.907-.952-.226-.243-.39-.435c-3.422-3.92-5.457-9.031-5.67-14.24l-.014-.434-.024-1.005c-.058-1.56-.307-2.42-.927-2.92-.409-.331-.985-.494-1.9-.566z" transform="matrix(-1 0 0 1 462.254 57.697)"/>
        </g>
        <g>
            <path fill="#F94B4B" d="M34.132 285.811L34.132 292.547 23.331 292.547 23.331 289.179 0 292.547 21.171 280.358 34.132 280.358zM57.374 279.545c-3.58 1.89-9.431 5.465-17.553 10.723 7.917-1.047 9.633-1.437 17.55-2.485v3.14h12.52v-11.378H57.373z" transform="translate(461.442)"/>
            <path fill="#001CFF" fill-rule="nonzero" d="M24.77 149.735l-3.54 1.6-3.046 10.096c-2.974 9.858-3.698 20.262-2.118 30.439l2.65 17.07c.237 1.53.294 3.081.17 4.623l-4.219 52.26c-.026.32-.039.641-.039.963 0 6.598 5.335 11.947 11.915 11.947l.232-.002c7.025-.123 12.714-5.81 12.831-12.88l1.223-73.721.41-1.515c.071-.26.288-.454.554-.494.37-.055.716.2.771.572l.216 1.441 7.266 74.177c.677 6.912 6.473 12.181 13.4 12.181.577 0 1.152-.047 1.72-.142 5.724-.952 9.594-6.377 8.644-12.116L70.42 245.74c-.63-3.81-1.58-7.56-2.84-11.209l-1.594-4.62c-2.256-6.538-3.134-13.475-2.58-20.37l2.335-29.053c.385-4.791-.472-9.6-2.488-13.962l-9.32-20.155-.853-.158c-9.573-1.714-19.441-.487-28.309 3.521z" transform="translate(461.442)"/>
            <g>
                <path fill="#464646" d="M17.879 0c9.874 0 17.879 8.004 17.879 17.878 0 9.047-6.72 16.524-15.44 17.713v14.005c.573.112 1.031.586 1.096 1.197l1.171 11.14c.012.111.01.222-.005.332l-.832 5.964c-.012.09-.034.178-.064.263l-2.06 5.88c-.05.14-.075.285-.077.432l-.219 15.094 1.85-.077.835-.046.535-.036.563-.046c1.988-.18 3.17-.487 3.834-1.065l1.328-2.949c.329 10.268 8.762 18.49 19.117 18.49l.483-.006c.481-.012.96-.042 1.435-.09l.061-.006.117.163c1.301 1.786 2.902 3.301 4.714 4.49l-.54 1.754-.348 1.142-.404 1.35c-2.111 7.115-3.544 12.91-4.298 17.38l-.106.65-.097.63c-.963 6.536-.52 11.45 1.29 14.739.048.088.075.18.082.273l-.58-.107c-9.645-1.72-19.587-.489-28.521 3.536l-3.52 1.585c-.05-.128-.063-.288-.031-.487l.099-.598.124-.707.147-.792c.486-2.567 1.243-6.065 2.27-10.497l.302-1.297.633-2.684c.889-3.737.074-7.67-2.216-10.744l-.17-.223-.31-.4c-7.86-10.193-11.404-18.722-10.574-25.62.209-1.73.705-3.097 1.503-4.168l5.64-20.733c.068-.25.063-.514-.013-.76l-3.259-10.56c-.135-.44-.04-.92.254-1.274l2.536-3.055c.228-.275.554-.45.91-.487l.438-.047V35.591C6.721 34.402 0 26.925 0 17.878 0 8.004 8.005 0 17.879 0zm0 5.688c-6.733 0-12.19 5.458-12.19 12.19 0 6.732 5.457 12.19 12.19 12.19 6.732 0 12.19-5.458 12.19-12.19 0-6.732-5.458-12.19-12.19-12.19z" transform="translate(461.442) translate(4.063)"/>
                <path fill="#FFF" d="M28.606 88.67c1.689 8.828 9.457 15.5 18.784 15.5l.483-.007c.481-.012.96-.042 1.435-.09l.061-.006.117.163c1.013 1.39 2.208 2.618 3.543 3.654l-.525 1.694-.344 1.128c-2.657 8.757-4.359 15.662-5.104 20.722l-.061.423c-.843 6.034-.506 10.78 1.041 14.24l.044.096-.477.087c-9.141-1.32-18.483-.01-26.925 3.793l-1.632.735-.225.005-.103.001-.147-.002.113-.64.22-1.18.224-1.138c.639-3.177 1.607-7.492 2.903-12.943.984-4.136.079-8.49-2.46-11.89l-.484-.627C11.425 112.452 8.01 104.233 8.79 97.766c.53-4.402 3.218-5.983 8.898-6.409l.987-.062 1.554-.068 1.295-.054.521-.026.526-.03c1.505-.096 2.395-.228 3.305-.493 1.298-.378 2.224-1.01 2.73-1.953z" transform="translate(461.442) translate(4.063)"/>
            </g>
            <path fill="#464646" d="M29.227 59.322c-.067.602-.102 1.214-.102 1.834l.003.3c.092 5.087 2.527 9.75 6.502 12.741l.128.095-.013.019c-1.144 1.635-2.026 3.43-2.619 5.327-.42-.677-1.04-1.24-1.82-1.592-.067-.03-.134-.058-.201-.084l-4.143-1.613c-1.427-.555-2.135-2.164-1.58-3.593l.042-.101 3.03-6.979-1.27-1.375c-.435-.471-.491-1.18-.135-1.713l2.178-3.266zM36.63 40.889l5.105 3.643c.272.195.459.48.524.8-2.794.507-5.33 1.715-7.406 3.426.176-.351.182-.767.003-1.13l-2.217-4.492c-.322-.654-.034-1.435.644-1.745.05-.022.1-.042.15-.058l1.955-.633c.421-.137.885-.066 1.242.189z" transform="translate(461.442)"/>
            <path fill="#F94B4B" fill-rule="nonzero" d="M45.267 45.507c-8.843 0-16.01 7.191-16.01 16.061l.002.295c.09 5.01 2.485 9.602 6.391 12.547l.126.093-.013.019c-2.224 3.185-3.44 6.984-3.44 10.967 0 10.569 8.54 19.136 19.075 19.136l.481-.006c.48-.012.958-.042 1.432-.09l.06-.006.117.163c3.369 4.64 8.748 7.457 14.602 7.457 9.97 0 18.054-8.109 18.054-18.111l-.003-.317c-.086-4.962-2.172-9.575-5.703-12.896l-.28-.257.085-.159c1.407-2.733 2.154-5.775 2.154-8.925C82.397 60.721 73.703 52 62.98 52l-.46.005c-1.226.03-2.436.172-3.618.426l-.405.091-.043-.064c-2.962-4.31-7.85-6.95-13.187-6.95z" transform="translate(461.442)"/>
        </g>
        <g>
            <path fill="#464646" d="M8.963 75.425c.25.005.484.105.711.206 4.414 1.973 8.373 4.908 11.508 8.528l.56.658c.232.265.485.513.806.66.336.152.713.179 1.085.186l4.955.042c-.747.236-1.46.55-1.877.893-2.055 1.687-2.055 5.446-1.644 7.782.055.31.13.631.315.88l.046.055-.629.308c-.631-.103-1.275-.206-1.909-.15l-.271.033c-.777.128-1.479.52-2.228.758-2.483.784-5.139-.192-7.626-.963-2.907-.9-5.902-1.526-8.93-1.869l-.758-.08c-.596-.057-1.375-.295-1.343-.88.03-.545.755-.734 1.316-.74.814-.008 1.63.054 2.434.185l.4.071c.586.113 1.446.074 1.476-.507.025-.471-.571-.698-1.046-.785l-5.193-.942c-.313-.057-.656-.131-.847-.38-.295-.382-.03-.976.401-1.204.433-.227.955-.191 1.444-.143 1.286.129 2.567.308 3.84.536l.761.143c.387.076.862.128 1.108-.174.389-.48-.265-1.106-.839-1.352-1.724-.74-3.591-1.157-5.472-1.224-.583-.02-1.318-.11-1.488-.656-.117-.373.137-.78.484-.974.346-.193.762-.22 1.161-.227 1.994-.039 3.993.283 5.869.942.452.16 1.177.175 1.188-.295.005-.229-.201-.403-.392-.536-1.557-1.077-3.426-1.718-5.33-1.828l-.303-.018c-.303-.02-.604-.06-.862-.21-.344-.198-.56-.672-.33-.991.123-.169.333-.25.532-.318 2.534-.86 5.369-.85 7.896.028l.284.098c.286.095.578.17.874.131.395-.051.781-.398.706-.78-.026-.132-.102-.249-.187-.355-.486-.611-1.25-.932-1.954-1.285-.705-.352-1.429-.813-1.698-1.541-.27-.728.204-1.731.996-1.716z" transform="matrix(-1 0 0 1 250.146 117.832)"/>
            <path fill="#001CFF" d="M87.348 45.502c.805.198 1.585.474 2.338.813 3.032.51 6.043 1.124 8.958 2.09 6.276 2.078 11.931 5.736 17.032 9.946 4.46 3.68 8.64 7.933 11.007 13.214 3.422 7.634 5.538 16.034 5.375 24.4l-.045 1.634-.022.997c-.127 7.071.309 12.581.051 22.29-7.855.124-12.187-.381-12.994-1.515 1.056-10.192.625-27.168-1.725-37.291l-.29-1.24c-.424-1.823-.869-3.687-1.897-5.25-1.507-2.287-4.057-3.628-6.532-4.796-1.436-.677-2.883-1.328-4.342-1.953l.23 1.075c1.069 5.188 1.636 10.481 2.545 15.706 1.272 7.308 3.268 14.578 6.268 21.348l-.07-.025c-6.244-2.15-12.875.14-20.763 5.75l-.755.544c-1.382 1.01-2.758 2.047-4.128 3.114-.21-.556-.453-1.1-.717-1.627-1.33-2.646-3.213-4.964-4.912-7.388-3.29-4.696-6.038-9.98-10.637-13.398-1.116-.83-2.336-1.546-3.45-2.375l-.082.176c-.659 1.398-1.364 2.853-2.601 3.777-1.437 1.072-3.333 1.24-5.122 1.344-11.12.646-22.298.295-33.357-1.048l-.301-.041c-.352-.058-.699-.158-.942-.411-.248-.259-.339-.628-.4-.982-.412-2.336-.412-6.095 1.643-7.782.806-.662 2.721-1.221 3.841-1.307 9.194-.7 18.389.7 27.583 0 .721-.054 1.485-.124 2.068-.554.465-.34.748-.86.984-1.395l.152-.356 10.795-25.907V54.98c.337.245.674.528 1.01.838l.46-1.054c.231-.53.466-1.066.711-1.598.672-1.459 1.422-2.894 2.379-4.136.492-1.51 1.537-2.737 3.426-3.319.257-.078.516-.141.777-.19.354-.066.711-.106 1.07-.126l.417-.014c1.626-.334 3.348-.276 4.964.121z" transform="matrix(-1 0 0 1 250.146 117.832)"/>
            <path fill="#F94B4B" d="M74.379 246.087v14.503H59.07v-4.827l-33.066 4.827 22.21-12.931c1.652 1.407 3.875 1.773 7.176 1.625 5.438-.242 10.854-.98 16.161-2.201 1.169-.27 2.097-.575 2.828-.996z" transform="matrix(-1 0 0 1 250.146 117.832)"/>
            <path fill="#464646" fill-rule="nonzero" d="M91.717 113.239c-4.43 3.235-8.79 6.76-13.118 10.59-9.369 8.288-18.416 17.81-28.381 29.577-5.915 6.984-11.922 14.383-18.244 22.442-.478.61-.777 1.233-.918 1.894l-.044.227c-.131.732-.084 1.257.202 2.543l.31 1.344.77 3.734c.315 1.512.625 2.992.933 4.448 1.118 5.28 2.268 10.538 3.452 15.775 2.471 10.932 5.095 21.819 7.87 32.655l1.048 4.061c.639 2.457 1.13 3.659 2.225 4.766 1.69 1.708 4 2.148 7.568 1.99 5.438-.243 10.854-.98 16.161-2.202 2.327-.537 3.702-1.216 4.462-2.666.52-.992.57-2.02.369-3.603l-.099-.725c-1.08-7.562-3.81-13.714-10.232-24.98l-1.76-3.082c-5.023-8.833-7.21-13.353-8.847-19.001l-.087-.304c-.809-2.843-.973-4.867-.331-6.643.668-1.845 1.956-3.132 4.834-5.19l31.006-21.934.047.074c2.743 4.325 4.517 8.626 7.241 16.835l1.506 4.584c3.435 10.344 5.609 15.227 9.58 20.343l.2.256c4.63 5.882 9.523 9.423 20.533 15.69l4.076 2.305c4.475 2.547 7.046 4.117 9.718 5.995l.446.316c2.81 2.004 5.076 3.862 9.094 7.402l3.544 3.14c7.228 6.383 11.023 9.285 16.163 11.976 1.351.707 2.27.987 3.322.784 1.065-.206 1.772-.776 2.778-1.975l10.155-12.39c1.31-1.598 1.863-2.518 2.004-3.81.141-1.276-.236-2.422-1.107-4.034-3.42-6.336-8.613-11.695-14.833-15.307l-.507-.29c-4.035-2.283-7.775-3.665-15.165-5.844l-4.869-1.42c-1.26-.373-2.184-.656-3.166-.97l-.372-.12c-9.751-3.15-16.52-7.252-20.449-13.36-3.61-5.61-4.568-11.455-4.771-23.23l-.497-32.807-.032-1.493c-.149-5.778-.58-9.302-1.797-12.965-1.852-5.576-5.642-10.034-10.472-11.695-6.245-2.15-12.876.14-20.764 5.75l-.755.544z" transform="matrix(-1 0 0 1 250.146 117.832)"/>
            <path fill="#F94B4B" d="M191.273 230.48l.01-.112 7.691 13.322-13.257 7.653-2.414-4.18-26.223 20.713 12.553-21.928c1.095.678 2.202 1.306 3.38 1.923 1.352.707 2.271.987 3.323.784 1.065-.206 1.772-.776 2.778-1.975l10.155-12.39c1.31-1.598 1.863-2.518 2.004-3.81z" transform="matrix(-1 0 0 1 250.146 117.832)"/>
            <path fill="#FFF" fill-rule="nonzero" d="M112.707 108.481c4.302 1.48 7.755 5.54 9.459 10.671 1.22 3.671 1.614 7.257 1.736 13.476l.498 32.753c.188 12.442 1.152 18.594 5.038 24.634 4.103 6.376 10.994 10.62 20.789 13.854l1.09.353c1.357.432 2.647.818 4.897 1.471l2.968.865c7.585 2.236 11.24 3.61 15.334 5.986 5.962 3.462 10.943 8.602 14.22 14.674.725 1.342 1.016 2.227.922 3.084-.091.83-.49 1.527-1.484 2.76l-10.147 12.383c-.864 1.054-1.377 1.494-2 1.614-.54.105-1.13-.057-2.056-.524l-.204-.104c-5.177-2.71-8.987-5.672-16.658-12.478l-2.424-2.15c-4.144-3.658-6.472-5.581-9.31-7.616l-.9-.638c-2.565-1.79-5.075-3.326-9.24-5.701l-3.943-2.232c-11.192-6.346-16.046-9.82-20.574-15.574l-.383-.493c-3.835-5.01-5.956-9.948-9.483-20.674l-1.007-3.075c-2.962-8.968-4.818-13.443-7.903-18.176l-.638-.97-32.09 22.7c-3.35 2.37-4.875 3.846-5.716 6.172-.787 2.176-.598 4.497.295 7.64l.18.623c1.672 5.659 3.907 10.252 8.897 19.029l1.462 2.558c6.748 11.794 9.448 17.9 10.437 25.644.163 1.273.126 2.03-.195 2.642-.468.893-1.496 1.4-3.388 1.837-5.21 1.2-10.53 1.924-15.868 2.161-3.142.14-5.074-.228-6.34-1.508-.792-.8-1.205-1.763-1.738-3.765l-.07-.267c-3.16-12.16-6.13-24.384-8.906-36.665-1.182-5.23-2.33-10.482-3.446-15.753l-.464-2.2c-.233-1.11-.467-2.236-.704-3.38l-.476-2.314c-.03-.148-.061-.294-.098-.455l-.26-1.125c-.268-1.198-.291-1.577-.17-2.149.088-.412.278-.81.607-1.228 6.31-8.044 12.304-15.427 18.205-22.395l1.52-1.784c9.322-10.895 17.872-19.818 26.698-27.626 4.291-3.797 8.611-7.29 13-10.495 7.828-5.716 14.24-8.062 20.031-6.07z" transform="matrix(-1 0 0 1 250.146 117.832)"/>
            <path fill="#464646" d="M121.14 120.32c2.013.435 5.388.627 10.127.576.035.307.028.623-.027.944l-.077.472c-.083.553-.135 1.111-.04 1.66.13.76.529 1.445.77 2.178.597 1.82.188 3.736-.384 5.606l-.167.533-.428 1.316c-.914 2.841-1.55 5.77-1.9 8.73l-.093.846c-.076.564-.323 1.237-.882 1.208-.555-.03-.748-.739-.754-1.287-.007-.796.056-1.593.189-2.379l.09-.49c.091-.565.025-1.316-.534-1.345-.446-.022-.677.485-.777.93l-.02.093-.98 5.192c-.057.272-.142.548-.364.713-.388.288-.992.03-1.223-.393-.23-.423-.195-.933-.146-1.41.13-1.258.313-2.51.545-3.754l.164-.84c.065-.359.086-.768-.196-.988-.488-.38-1.124.26-1.374.82-.698 1.565-1.113 3.25-1.224 4.956l-.025.502c-.03.549-.142 1.19-.661 1.346-.38.114-.795-.133-.99-.472-.197-.34-.224-.746-.232-1.136-.039-1.949.288-3.904.958-5.737.162-.443.178-1.15-.3-1.161-.232-.006-.41.195-.545.382-1.094 1.523-1.746 3.35-1.858 5.212l-.018.295c-.02.296-.062.59-.213.843-.202.337-.684.548-1.008.322-.172-.12-.255-.325-.323-.52-.873-2.478-.864-5.248.028-7.719l.1-.277c.096-.28.173-.566.133-.854-.052-.386-.404-.764-.792-.691-.135.026-.254.1-.362.183-.395.303-.671.714-.912 1.152l-.1.188-.293.57c-.358.69-.828 1.397-1.567 1.66-.74.263-1.76-.2-1.745-.974.006-.243.108-.473.21-.694 2.004-4.316 4.988-8.186 8.668-11.25l.669-.548c.27-.227.521-.474.67-.788.156-.328.183-.696.19-1.06l.023-2.662zM63.998 11.822c.496-.434 1.245-.348 1.634.166l.064.095 7.74 12.303.068.128c.242.48.863 1.873 1.128 1.94.272.067 2.085-1.207 2.347-1.305 1.687-.628 3.327.337 3.395 2.14.083 2.212-.988 1.743-1.806 3.35-.56 1.101 1.414 7.087 1.65 8.3.088.458.815.725 1.15 1.09l.075.094 5.972 5.396-.067-.017c-1.5-.37-3.093-.445-4.614-.187l-.35.066-.056.001c-.481.01-.96.051-1.43.139-.262.049-.521.112-.778.19-1.89.582-2.934 1.81-3.426 3.319-.957 1.242-1.707 2.677-2.379 4.136l-.36.8-.81 1.852c-.253-.233-.506-.45-.758-.647l-.253-.191v1.24l-.125-1.276c-.104-1.148-.169-2.087-.18-2.426l-.01-.527c-.079-3.58-.494-10.982-.598-12.99l-1.54.443c-2.779.792-6.503 1.7-9.465.679-.422-.146-1.2-.644-1.24-1.09l-.143-1.547c-.203-2.288-.3-4.444.396-6.632.18-.566-.109-1.17-.647-1.388l-.104-.037c-1.07-.319-1.56-1.55-1.01-2.523 1.343-2.379 2.28-4.988 2.762-7.678.159-.889.269-1.787.328-2.688.043-.653-.094-1.383.3-1.957.196-.287 1.992-1.755 3.14-2.761z" transform="matrix(-1 0 0 1 250.146 117.832)"/>
            <path fill="#FF7FB1" d="M87.415 45.52c-4.041-2.923-6.44-5.117-7.198-6.581-1.135-2.196-2.21-7.199-1.649-8.3.818-1.607 1.89-1.138 1.806-3.35-.068-1.803-1.708-2.768-3.395-2.14-.262.098-2.075 1.372-2.347 1.305-.206-.052-.628-.906-.918-1.51l-.21-.43-.068-.128-7.74-12.303-.064-.095c-.39-.514-1.138-.6-1.634-.166l-2.256 1.933c-.459.398-.804.71-.884.828-.182.265-.25.564-.276.873-.542-.545-.826-1.418-.975-2.123-.339-1.614-.262-3.298.095-4.902.172-.773.42-1.554.835-2.234l1.799-2.308c1.213-1.557 2.986-2.578 4.939-2.845l3.711-.712c.545-.104 1.1-.14 1.653-.099 3.496.263 9.213 2.196 11.744 3.692 3.597 2.127 2.547 10.327 7.387 9.914l.224-.025c1.11-.149 2.253-.06 3.275.399 2.854 1.28 1.32 3.67 1.921 5.594.873 2.79 5.21 2.666 6.849 5.086 1.547 2.287.12 6.036 2.28 7.755 1.655 1.318 4.344.41 6.005 1.72 2.127 1.68.933 5.545 2.92 7.39 1.883 1.749 5.21.416 7.327 1.875 2.078 1.43 1.779 4.5 2.54 6.928l.08.242c.253.721.917 1.218 1.68 1.255l3.44.167c.9.045 1.75.424 2.385 1.065l1.4 1.414c.344.348.762.612 1.223.772l.218.067c.49.135 2.276 1.441 2.897 1.441 1.299.005 2.251 1.386 2.276 2.687.03 1.812-1.282 3.44-2.888 4.274-1.925 1-4.21 1.061-6.338 1.125-3.072.093-6.144-.035-9.202-.34-1.973-2.332-4.25-4.435-6.606-6.38-5.101-4.21-10.756-7.867-17.032-9.945-2.915-.966-5.926-1.58-8.958-2.09-.627-.283-1.274-.521-1.937-.708l-.334-.088z" transform="matrix(-1 0 0 1 250.146 117.832)"/>
        </g>
    </g>
</svg>
