<svg xmlns="http://www.w3.org/2000/svg" width="536" height="389" viewBox="0 0 536 389">
  <g fill="none" fill-rule="evenodd">
    <g transform="translate(107)">
      <path fill="#464646" fill-rule="nonzero" d="M2.04222857,326.545986 L2.04273778,339.964986 L81.0412286,339.964986 L81.0412286,341.964986 L1.04273778,341.964986 C0.52990194,341.964986 0.107230619,341.578946 0.0494655106,341.081607 L0.0419428232,340.964986 L0.0419428232,328.310986 L2.04222857,326.545986 Z M324.386943,339.964986 L324.224943,341.964986 L184.042229,341.964986 L184.042229,339.964986 L324.386943,339.964986 Z M241.793943,41.9644437 L241.101943,43.9644437 L2.04273778,43.9649862 L2.04177641,193.798704 C1.24452601,195.130605 0.763010271,196.677927 0.702351508,198.334175 L0.697389139,198.72538 C0.476698428,198.741438 0.258127637,198.76525 0.0419428232,198.796548 L0.0419428232,42.9649862 C0.0419428232,42.4521503 0.428777969,42.029479 0.926116654,41.9717139 L1.04273778,41.9644437 L241.793943,41.9644437 Z M345.041943,72.5684437 L347.041943,73.3454437 L347.043635,90.1000822 C346.528821,90.3963634 345.872343,90.6308633 345.044027,90.8186193 L345.041943,72.5684437 Z M330.382943,41.9642673 L329.391193,42.9572279 L329.431609,42.9360326 C329.242259,43.0325693 329.068259,43.1593803 328.917116,43.3124516 L328.800774,43.4409692 L328.364943,43.9644437 L305.133943,43.9644437 L305.826943,41.9644437 L330.382943,41.9642673 Z"/>
      <path fill="#464646" fill-rule="nonzero" d="M55.2330143,104.741426 C55.3657472,104.246066 55.848028,103.937713 56.3433699,104.010637 L56.4577583,104.034322 L127.606655,123.098612 C128.102016,123.231343 128.410371,123.713625 128.337447,124.208968 L128.313762,124.323357 L120.418,153.789 L118.347,153.789 L126.12295,124.771768 L56.9050772,106.224895 L36.2242759,183.406696 L105.442149,201.95357 L112.988,173.789 L115.059,173.789 L107.115257,203.437254 C106.982525,203.932617 106.500241,204.240972 106.004897,204.168046 L105.890508,204.14436 L34.7414257,185.079749 C34.2460649,184.947015 33.9377121,184.464733 34.0106376,183.96939 L34.0343232,183.855002 L55.2330143,104.741426 Z"/>
      <path fill="#FFF361" d="M86.0427378 168.789267L86.0427378 158.789267C86.0427378 156.027844 88.281314 153.789267 91.0427378 153.789267L141.042738 153.789267C143.804162 153.789267 146.042738 156.027844 146.042738 158.789267L146.042738 168.789267C146.042738 171.550691 143.804162 173.789267 141.042738 173.789267L91.0427378 173.789267C88.281314 173.789267 86.0427378 171.550691 86.0427378 168.789267zM174.042738 291.788986C179.565585 291.788986 184.042738 296.26642 184.042738 301.789267L184.042738 366.789267C184.042738 372.312115 179.565585 376.789267 174.042738 376.789267L91.0427378 376.789267C85.5198903 376.789267 81.0417378 372.312115 81.0417378 366.789267L81.0417378 353.616986 83.2118099 354.723844 84.1197909 352.941831 81.0417378 351.371986 81.0417378 332.328729C84.223445 332.426756 87.3973673 332.765886 90.5275223 333.342919L91.5971229 333.547446C92.3581505 333.675385 93.3302684 333.629032 93.5088257 332.902392 93.6865529 332.183063 92.8453105 331.657756 92.1395529 331.433804 91.1129296 331.107828 90.0579203 330.872839 88.9900968 330.732088L88.3356217 330.655305C87.5671827 330.550401 86.609659 330.168913 86.7907347 329.44094 86.9361041 328.859936 87.6868267 328.767385 88.3021995 328.817612L88.4232499 328.829458 95.4988948 329.630919C95.877187 329.667982 96.2758762 329.672518 96.5780984 329.452809 97.1030378 329.070439 97.0036135 328.198368 96.5466741 327.736531 96.0897347 327.275211 95.4164317 327.118857 94.7797044 326.992949 93.1033156 326.661837 91.4133324 326.398094 89.7157174 326.202616L88.5646554 326.079107C88.076535 326.019999 87.5403661 325.885229 87.3656438 325.438701 87.0632499 324.666221 88.1368257 324.107889 88.9595226 324.011394 91.2537131 323.741148 93.5945432 323.878016 95.8417768 324.411258L96.5007022 324.578042 96.7770838 324.640931C97.4328893 324.77419 98.145302 324.79265 98.4985832 324.267339 98.7932499 323.828723 98.6345832 323.201761 98.2724317 322.817327 97.9102802 322.432893 97.3951287 322.237838 96.8938863 322.07426 94.5566782 321.308971 92.0888826 320.946891 89.6308101 321.006481L88.9960869 321.02817C88.370644 321.026741 87.5580816 320.763057 87.7205832 320.184085 87.8040378 319.885826 88.1327044 319.738245 88.426856 319.641233 90.8202499 318.847597 93.4356741 318.739749 95.8862499 319.332654L96.2746822 319.427102C96.6657063 319.517518 97.0625984 319.581375 97.4481893 319.488492 97.9617954 319.364647 98.4223408 318.83418 98.2559469 318.331062 98.167856 318.065313 97.9350075 317.878514 97.7093711 317.713904 94.846159 315.619901 91.2612196 314.536778 87.7200681 314.696744L87.3227736 314.714128C86.9238048 314.726609 86.5244014 314.710935 86.165856 314.546067 85.6877954 314.326243 85.336462 313.728177 85.5821893 313.262729 85.6671893 313.101215 85.8104014 312.978403 85.9592802 312.873651 86.5297246 312.471156 87.2043442 312.283096 87.8959828 312.148014L88.1559748 312.099526 89.1421117 311.926195C90.1098972 311.735961 91.1052661 311.406438 91.6913711 310.62381 92.3193408 309.78528 92.1168863 308.301211 91.1102802 308.015337 90.793462 307.925034 90.4565529 307.964251 90.1299469 308.007596 87.0323308 308.421275 83.9806658 309.172913 81.0417378 310.237365L81.0417378 301.789267C81.0417378 296.26642 85.5198903 291.788986 91.0427378 291.788986L163.213738 291.788986 163.738215 295.09566 165.713592 294.782791 165.238738 291.788986 174.042738 291.788986zM110.042738 357.964986L105.042738 357.964986 105.042738 359.964986 110.042738 359.964986 110.042738 357.964986zM118.850506 356.878291L113.912064 357.660464 114.224933 359.63584 119.163375 358.853668 118.850506 356.878291zM96.2349697 356.878291L95.9221007 358.853668 100.860542 359.63584 101.173411 357.660464 96.2349697 356.878291zM127.379839 354.427137L122.624557 355.972222 123.242591 357.874335 127.997873 356.32925 127.379839 354.427137zM87.7056363 354.427137L87.0876023 356.32925 91.8428849 357.874335 92.4609189 355.972222 87.7056363 354.427137zM135.420717 350.671879L130.965685 352.941831 131.873666 354.723844 136.328698 352.453892 135.420717 350.671879zM142.775147 345.704983L138.730062 348.643909 139.905633 350.261943 143.950718 347.323017 142.775147 345.704983zM149.262038 339.648752L145.726504 343.184286 147.140718 344.5985 150.676251 341.062966 149.262038 339.648752zM154.721661 332.65231L151.782735 336.697395 153.400769 337.872966 156.339695 333.827881 154.721661 332.65231zM159.019583 324.887933L156.74963 329.342966 158.531643 330.250947 160.801596 325.795914 159.019583 324.887933zM162.049973 316.546805L160.504888 321.302088 162.407001 321.920122 163.952086 317.164839 162.049973 316.546805zM163.738215 307.834313L162.956043 312.772754 164.93142 313.085623 165.713592 308.147182 163.738215 307.834313zM166.042738 298.964986L164.042738 298.964986 164.042738 303.964986 166.042738 303.964986 166.042738 298.964986z"/>
      <path fill="#464646" fill-rule="nonzero" d="M110.042738 357.964986L110.042738 359.964986 105.042738 359.964986 105.042738 357.964986 110.042738 357.964986zM118.850506 356.878291L119.163375 358.853668 114.224933 359.63584 113.912064 357.660464 118.850506 356.878291zM96.2349697 356.878291L101.173411 357.660464 100.860542 359.63584 95.9221007 358.853668 96.2349697 356.878291zM127.379839 354.427137L127.997873 356.32925 123.242591 357.874335 122.624557 355.972222 127.379839 354.427137zM87.7056363 354.427137L92.4609189 355.972222 91.8428849 357.874335 87.0876023 356.32925 87.7056363 354.427137zM135.420717 350.671879L136.328698 352.453892 131.873666 354.723844 130.965685 352.941831 135.420717 350.671879zM79.6647582 350.671879L84.1197909 352.941831 83.2118099 354.723844 78.7567772 352.453892 79.6647582 350.671879zM142.775147 345.704983L143.950718 347.323017 139.905633 350.261943 138.730062 348.643909 142.775147 345.704983zM72.3103285 345.704983L76.3554135 348.643909 75.179843 350.261943 71.134758 347.323017 72.3103285 345.704983zM149.262038 339.648752L150.676251 341.062966 147.140718 344.5985 145.726504 343.184286 149.262038 339.648752zM65.8234377 339.648752L69.3589716 343.184286 67.944758 344.5985 64.4092241 341.062966 65.8234377 339.648752zM154.721661 332.65231L156.339695 333.827881 153.400769 337.872966 151.782735 336.697395 154.721661 332.65231zM60.3638145 332.65231L63.3027407 336.697395 61.6847067 337.872966 58.7457805 333.827881 60.3638145 332.65231zM159.019583 324.887933L160.801596 325.795914 158.531643 330.250947 156.74963 329.342966 159.019583 324.887933zM54.8847378 326.974986L57.2917378 327.293986 58.3358454 329.342966 56.5538324 330.250947 54.8847378 326.974986zM162.049973 316.546805L163.952086 317.164839 162.407001 321.920122 160.504888 321.302088 162.049973 316.546805zM163.738215 307.834313L165.713592 308.147182 164.93142 313.085623 162.956043 312.772754 163.738215 307.834313zM51.3472604 307.834313L51.7967378 310.677986 49.6747378 310.057986 49.3718837 308.147182 51.3472604 307.834313zM51.0427378 298.964986L51.0427378 303.964986 49.0427378 303.964986 49.0427378 298.964986 51.0427378 298.964986zM166.042738 298.964986L166.042738 303.964986 164.042738 303.964986 164.042738 298.964986 166.042738 298.964986zM164.93142 289.844349L165.713592 294.782791 163.738215 295.09566 162.956043 290.157218 164.93142 289.844349zM50.154056 289.844349L52.1294327 290.157218 51.3472604 295.09566 49.3718837 294.782791 50.154056 289.844349zM162.407001 281.009851L163.952086 285.765133 162.049973 286.383167 160.504888 281.627885 162.407001 281.009851zM52.6784741 281.009851L54.5805871 281.627885 53.0355021 286.383167 51.1333891 285.765133 52.6784741 281.009851zM158.531643 272.679026L160.801596 277.134058 159.019583 278.042039 156.74963 273.587007 158.531643 272.679026zM56.5538324 272.679026L58.3358454 273.587007 56.0658929 278.042039 54.2838799 277.134058 56.5538324 272.679026zM61.6847067 265.057006L63.3027407 266.232577 60.3638145 270.277662 58.7457805 269.102091 61.6847067 265.057006zM153.400769 265.057006L156.339695 269.102091 154.721661 270.277662 151.782735 266.232577 153.400769 265.057006zM67.944758 258.331473L69.3589716 259.745686 65.8234377 263.28122 64.4092241 261.867006 67.944758 258.331473zM147.140718 258.331473L150.676251 261.867006 149.262038 263.28122 145.726504 259.745686 147.140718 258.331473zM75.179843 252.668029L76.3554135 254.286063 72.3103285 257.224989 71.134758 255.606955 75.179843 252.668029zM139.905633 252.668029L143.950718 255.606955 142.775147 257.224989 138.730062 254.286063 139.905633 252.668029zM83.2118099 248.206128L84.1197909 249.988141 79.6647582 252.258094 78.7567772 250.476081 83.2118099 248.206128zM131.873666 248.206128L136.328698 250.476081 135.420717 252.258094 130.965685 249.988141 131.873666 248.206128zM91.8428849 245.055637L92.4609189 246.957751 87.7056363 248.502835 87.0876023 246.600722 91.8428849 245.055637zM123.242591 245.055637L127.997873 246.600722 127.379839 248.502835 122.624557 246.957751 123.242591 245.055637zM114.224933 243.294132L119.163375 244.076304 118.850506 246.051681 113.912064 245.269509 114.224933 243.294132zM100.860542 243.294132L101.173411 245.269509 96.2349697 246.051681 95.9221007 244.076304 100.860542 243.294132zM110.042738 242.964986L110.042738 244.964986 105.042738 244.964986 105.042738 242.964986 110.042738 242.964986zM325.508335 126.938095C325.840453 127.531212 326.185014 128.12908 326.54201 128.731703L257.456738 197.816986 328.013738 268.374986 329.519738 266.868267 329.60665 267.466983C329.692156 268.116638 329.755574 268.768672 329.796864 269.42196L328.721302 270.496374C328.360817 270.856859 327.793584 270.884588 327.401293 270.579561L327.307086 270.496372 255.335628 198.5244C254.975147 198.163916 254.947418 197.596687 255.252443 197.204396L255.335631 197.110189 325.508335 126.938095zM378.397284 158.703413L408.749842 189.053615C409.110328 189.414099 409.138059 189.981331 408.833033 190.373624L408.749845 190.467831 395.074738 204.142267 394.177738 202.209267 406.627738 189.759986 378.306136 161.43951C378.311626 160.556463 378.341983 159.644428 378.397284 158.703413z"/>
      <path fill="#FF74B2" fill-rule="nonzero" d="M19.5427378,56.9649862 C17.0568356,56.9649862 15.0427378,58.9802525 15.0427378,61.4649862 C15.0427378,63.9497198 17.0568356,65.9649862 19.5427378,65.9649862 C22.0285996,65.9649862 24.0427378,63.9497003 24.0427378,61.4649862 C24.0427378,58.980272 22.0285996,56.9649862 19.5427378,56.9649862 Z"/>
      <path fill="#001CFF" fill-rule="nonzero" d="M34.5427378,56.9649862 C32.0562886,56.9649862 30.0427378,58.9808026 30.0427378,61.4649862 C30.0427378,63.9491698 32.0562886,65.9649862 34.5427378,65.9649862 C37.0291502,65.9649862 39.0427378,63.9491538 39.0427378,61.4649862 C39.0427378,58.9808185 37.0291502,56.9649862 34.5427378,56.9649862 Z"/>
      <path fill="#464646" fill-rule="nonzero" d="M49.5427378,56.9649862 C47.0562886,56.9649862 45.0427378,58.9808026 45.0427378,61.4649862 C45.0427378,63.9491698 47.0562886,65.9649862 49.5427378,65.9649862 C52.0291502,65.9649862 54.0427378,63.9491538 54.0427378,61.4649862 C54.0427378,58.9808185 52.0291502,56.9649862 49.5427378,56.9649862 Z M49.507103,58.9215079 C50.8867061,58.9215079 52.007103,60.0396949 52.007103,61.4215079 C52.007103,62.8033209 50.8867061,63.9215079 49.507103,63.9215079 C48.1274682,63.9215079 47.007103,62.803341 47.007103,61.4215079 C47.007103,60.0396748 48.1274682,58.9215079 49.507103,58.9215079 Z"/>
      <polygon fill="#FF7FB1" points="255.992 .965 313.043 21.129 295.092 72.965 238.043 52.801"/>
      <g transform="translate(276.043 11.79)">
        <path fill="#464646" fill-rule="nonzero" d="M52.228,32.29 L49.0456815,36.1278767 C48.6507618,36.6040514 48.5003873,37.2333577 48.6312377,37.8316781 L48.6739243,37.9939498 L48.833,38.513 L2.414,84.9327188 L12.066,94.5857188 L53.383,53.268 L53.4438479,53.4631671 C53.5368718,53.7648506 53.5568983,54.0833809 53.5034888,54.3927385 L53.4626272,54.5770443 L52.924,56.556 L12.7733992,96.7071087 C12.4129097,97.0675963 11.8456699,97.0953198 11.4533798,96.7902837 L11.359173,96.7070922 L0.292878623,85.640341 C-0.0675925446,85.2798549 -0.0953156245,84.7126335 0.209705512,84.3203482 L0.292892965,84.2261423 L52.228,32.29 Z M65.6716143,40.9781303 C65.6969247,41.3682989 65.8362618,41.7507429 66.0854473,42.0725096 L66.1989543,42.2065403 L66.715,42.765 L64.369,45.111 L64.828,41.823 L65.6716143,40.9781303 Z M59.572,24.946 L59.841,27.505 L56.68,30.666 L54.0884271,30.9394124 C53.8267726,30.9669134 53.5757668,31.0454244 53.3484554,31.1679606 L59.572,24.946 Z M73.8028995,10.7142406 C73.8232119,10.8304099 73.8541043,10.9460548 73.8960332,11.0598918 L73.9672611,11.2291309 L74.66,12.686 L63.605,23.741 L63.4738672,22.4817861 C63.4331473,22.0943621 63.2843811,21.7444508 63.060656,21.4588457 L73.8028995,10.7142406 Z M85.546086,0.20970307 L85.6402934,0.292891294 L96.7071049,11.3596425 C97.0675912,11.7201269 97.0953209,12.2873605 96.790294,12.6796524 L96.7071049,12.7738599 L95.1558015,14.3248988 C94.499926,14.2508398 93.8373887,14.2039556 93.1695523,14.1851421 L92.475,14.175 L94.585,12.0657188 L84.933,2.41371885 L79.6642317,7.68165093 C79.2224727,7.42094546 78.6965995,7.33986807 78.1965087,7.45578223 L78.0103978,7.50851794 L76.503,8.015 L84.2260815,0.292893473 C84.5865647,-0.0675900161 85.1537946,-0.0953203462 85.546086,0.20970307 Z"/>
        <polygon fill="#FFF" points="2.414 84.933 12.066 94.586 94.585 12.066 84.933 2.414"/>
      </g>
    </g>
    <g transform="translate(0 187)">
      <path fill="#001CFF" fill-rule="nonzero" d="M8.88907529,139.010171 L9.10849514,139.016079 L22.1011025,139.605309 L21.4419763,150.080943 C20.7805363,151.487932 20.1803757,152.904006 19.7438501,154.358415 L19.5551356,155.002457 C19.2493679,156.082656 19.0067181,157.193762 19.1172104,158.289715 L0,183.090931 L7.03726614,153.299684 L2.65291733,153.102192 L3.20538898,144.31333 C3.39440245,141.306455 5.90168295,138.988951 8.88907529,139.010171 L8.88907529,139.010171 Z"/>
      <polygon fill="#001CFF" fill-rule="nonzero" points="100.879 154.028 102.243 154.102 136.382 176.496 114.216 172.04"/>
      <path fill="#FF7FB1" fill-rule="nonzero" d="M101.015048,101.130559 L101.468381,101.728469 L101.988566,102.424404 L102.805338,103.535358 C103.086181,103.920763 103.376382,104.32226 103.678259,104.742867 L104.953525,106.534363 L110.692435,114.686711 L111.551433,115.879682 L112.411109,117.057399 C115.486332,121.239751 118.316125,124.75158 121.04596,127.668641 C120.157942,128.775249 119.241063,129.858528 118.279868,130.90362 C116.123101,133.248867 113.755897,135.387401 111.369291,137.499342 L97.6220483,149.630559 L114.610856,172.572991 C115.08183,173.209077 115.476666,173.892488 115.790773,174.609198 C116.034823,175.097906 116.237486,175.614499 116.391426,176.161744 C117.696305,180.802815 116.115513,186.573088 112.921574,190.180573 C110.824907,192.548582 107.086759,193.806997 104.026759,194.594957 C101.352608,195.284357 98.521335,194.75131 95.8600622,194.013404 C82.1405471,190.2088 70.5388198,181.242978 57.9778804,174.532158 C48.9235774,169.694485 39.1923653,165.972443 29.0443956,164.446061 L27.6515197,164.241316 C26.1021915,164.009417 24.5581392,163.732447 23.1283956,163.106477 C21.2692138,162.293231 19.5918804,160.762721 19.1895471,158.770889 C18.8928198,157.302301 19.3136986,155.793979 19.7438501,154.358415 C20.3384638,152.377291 21.2366946,150.467296 22.1798485,148.554502 L23.1283956,146.638036 C25.9352429,140.922819 29.6491218,140.042815 35.3621655,142.014733 L37.1380097,142.648818 C36.669537,141.852031 36.3083246,140.992533 36.0649057,140.090642 L35.9678259,139.701581 L34.064341,131.402972 C33.8334193,130.395796 33.7544452,129.396853 33.8101786,128.427013 L33.9364249,128.541913 C34.5968729,129.108505 35.2713243,129.3151 36.3888569,129.416615 L36.6352664,129.436853 L68.0294339,131.374509 L68.9663274,131.428751 C73.5027657,131.672322 75.872717,131.490833 78.5040726,130.413227 C80.5058288,129.593631 81.9750902,128.540306 84.3204096,126.373601 L84.953031,125.782539 L85.5790623,125.187203 L85.850441,124.921745 L85.9875117,124.783208 C87.8025646,122.92817 89.3956086,120.473113 92.1993553,115.423294 L92.8867434,114.177786 L94.7417874,110.779692 L95.8985448,108.693296 L96.3547091,107.885362 C98.0594116,104.886026 99.2715317,102.99298 100.425115,101.592738 L101.015048,101.130559 Z M134.100583,87.1120727 C135.430806,88.4747861 136.309408,90.0934502 136.752168,91.7944712 C137.814083,93.22914 138.391713,94.9652554 138.825656,96.6988189 C139.251686,98.40168 139.556141,100.191232 139.181626,101.906478 C138.830705,103.514666 137.916792,104.921697 136.946257,106.262606 L136.136048,107.364559 L134.370532,106.650211 L133.494262,106.281258 C129.388407,104.518531 127.117912,103.020806 124.869917,100.358423 L124.637371,100.078791 C122.440305,97.3964923 121.244075,95.3653555 120.791882,93.1557158 C120.561857,92.0308274 120.527255,90.8405111 120.653089,89.3645033 L120.691359,88.9547069 L120.772747,88.2326368 L120.819075,87.868837 L121.157599,85.4695722 C125.277479,82.9642128 130.655501,83.5827094 134.100583,87.1120727 Z"/>
      <path fill="#464646" fill-rule="nonzero" d="M147.399113,21.4656365 C150.632079,25.490686 152.031527,30.9801165 150.510683,36.5041787 L149.971835,38.4614368 L148.368168,44.552003 C147.103471,49.353039 142.629896,52.5910551 137.68238,52.2860881 L125.501108,51.5352812 L119.452714,57.2749549 L117.394308,65.7400087 C119.047722,67.0294661 119.905119,67.9561971 120.599695,69.3130861 C121.340622,70.759503 121.596992,72.2656292 121.689244,74.6347655 C121.816317,77.8913054 121.684748,81.1583756 121.296574,84.3959336 L121.172426,85.3662756 L120.819075,87.868837 L120.772747,88.2326368 L120.691359,88.9547069 C120.522579,90.6235493 120.540946,91.9285649 120.791882,93.1557158 C121.244075,95.3653555 122.440305,97.3964923 124.637371,100.078791 C127.118584,103.107099 129.551078,104.657296 134.370532,106.650211 L137.903884,108.080807 L138.630293,108.380552 C140.223876,109.043935 141.147177,109.47321 142.225879,110.047287 L142.459709,110.172658 L145.818981,112.020451 C147.375571,112.894303 148.443855,113.564826 149.471821,114.343206 C151.190323,115.645784 152.46501,117.054308 153.320931,118.7228 C153.865233,119.784465 154.174961,121.044304 154.282014,122.406842 L156.960896,123.186667 C159.86738,124.033453 162.772835,124.884368 165.676744,125.739411 L170.467524,127.153172 L175.255986,128.5739 C175.803593,128.736962 176.371805,128.902088 176.937441,128.821589 C177.400691,128.755797 177.818157,128.532393 178.216788,128.27873 L178.610138,128.019696 C184.136683,124.3281 190.513229,121.921906 197.09738,121.04261 C197.423986,120.999265 197.760896,120.960047 198.077714,121.050351 C199.08432,121.336225 199.286774,122.820294 198.658805,123.658824 C198.0727,124.441452 197.077331,124.770975 196.109545,124.961209 L195.123408,125.13454 C194.34206,125.274446 193.568464,125.455858 192.926714,125.908665 C192.777835,126.013416 192.634623,126.136229 192.549623,126.297743 C192.303896,126.763191 192.655229,127.361257 193.13329,127.581081 C193.61135,127.800904 194.162047,127.755495 194.687502,127.731758 C198.228653,127.571792 201.813593,128.654915 204.676805,130.748918 C204.902441,130.913528 205.13529,131.100327 205.22338,131.366076 C205.389774,131.869194 204.929229,132.399661 204.415623,132.523506 C203.901502,132.64735 203.36729,132.492545 202.853683,132.367668 C200.403108,131.774763 197.787683,131.882611 195.39429,132.676247 C195.100138,132.773259 194.771471,132.92084 194.688017,133.219099 C194.525515,133.798071 195.338078,134.061755 195.96352,134.063184 L196.071714,134.060725 C198.703108,133.932236 201.357168,134.289321 203.86132,135.109274 C204.362562,135.272852 204.877714,135.467907 205.239865,135.852341 C205.602017,136.236775 205.760683,136.863737 205.466017,137.302353 C205.062267,137.902708 204.189447,137.792832 203.468136,137.613056 L203.326077,137.576359 C200.92238,136.936496 198.397623,136.755373 195.926956,137.046408 C195.104259,137.142903 194.030683,137.701235 194.333077,138.473715 C194.5078,138.920243 195.043969,139.055013 195.532089,139.114121 L195.663714,139.128542 C197.704229,139.330306 199.735471,139.630628 201.747138,140.027963 C202.383865,140.153871 203.057168,140.310225 203.514108,140.771545 C203.971047,141.233382 204.070471,142.105453 203.545532,142.487823 C203.24331,142.707532 202.844621,142.702996 202.466328,142.665933 L195.390683,141.864472 C194.757047,141.79223 193.913229,141.856216 193.758168,142.475954 C193.577093,143.203927 194.534616,143.585415 195.303055,143.690319 L195.422623,143.704594 C196.672896,143.832051 197.909259,144.088512 199.106986,144.468818 C199.812744,144.69277 200.653986,145.218076 200.476259,145.937406 C200.297702,146.664046 199.325584,146.710399 198.564556,146.58246 L198.432653,146.558176 C194.152259,145.701586 189.782744,145.291867 185.41735,145.337277 L183.61424,145.361429 C180.706831,145.389415 177.739514,145.271048 175.400229,143.635448 C174.546108,143.038414 173.814593,142.258194 172.883199,141.791714 C172.018774,141.35929 171.039986,141.226157 170.081805,141.099217 L149.371683,138.359159 C148.5985,138.256863 147.824372,138.154372 147.051332,138.04434 C146.419579,138.347635 145.762312,138.538247 145.087678,138.595059 C141.491625,138.898443 137.538257,138.773296 135.447975,138.002796 C127.586883,135.104316 120.943731,128.661899 112.411109,117.057399 L111.551433,115.879682 L110.692435,114.686711 L104.953525,106.534363 C103.829761,104.944599 102.870045,103.611861 101.988566,102.424404 L101.468381,101.728469 L100.924171,101.012 L100.721349,101.242443 C99.3764069,102.790736 98.0022273,104.944433 95.8985448,108.693296 L94.7417874,110.779692 L92.8867434,114.177786 C89.6457581,120.081733 87.9458582,122.78172 85.9875117,124.783208 L85.850441,124.921745 L85.5790623,125.187203 L84.953031,125.782539 L84.3204096,126.373601 C81.9750902,128.540306 80.5058288,129.593631 78.5040726,130.413227 C75.872717,131.490833 73.5027657,131.672322 68.9663274,131.428751 L68.0294339,131.374509 L36.6352664,129.436853 C35.367746,129.342777 34.6440477,129.148976 33.9364249,128.541913 C32.6807615,127.463104 32.56612,125.888803 33.0398178,123.720042 C36.7005329,106.957252 45.123444,90.8467509 57.3132261,76.2606648 C62.6845923,69.8333492 68.7453252,63.7321043 75.4415994,57.954932 L80.2637424,53.830847 L81.1906753,53.0545236 C88.4984375,46.9857678 93.2770065,44.3011957 99.5311037,43.5774162 C100.842092,43.4253961 101.823575,43.4556348 102.709271,43.8013982 L107.861865,41.8801671 C109.540645,44.3666228 112.358109,46 115.557064,46 C120.710334,46 124.88803,41.7690946 124.88803,36.5507154 C124.88803,35.3993628 124.674348,34.301586 124.302478,33.2815465 C126.703811,32.4437695 128.657033,30.6447812 129.719739,28.3347226 C133.424949,28.2233691 136.586098,25.9332702 137.991111,22.6788084 C139.122797,23.1725453 140.368586,23.4488279 141.679205,23.4488279 C143.83461,23.4488279 145.819346,22.7086688 147.399113,21.4656365 Z"/>
      <path fill="#FFF" fill-rule="nonzero" d="M100.02676,45.5358552 L99.7612518,45.56413 L99.4157571,45.6065544 C93.4545244,46.3811613 88.772084,49.2204994 81.1011973,55.7426618 L76.6938243,59.5160617 C70.0991533,65.2102763 64.1330644,71.2189856 58.8478726,77.5431859 C46.8546362,91.8940886 38.5815152,107.718086 34.9937601,124.146785 C34.6661174,125.646853 34.7348806,126.591134 35.2392134,127.024435 C35.5272365,127.271527 35.9462538,127.380573 36.811162,127.444261 L68.6007958,129.405154 L69.4818112,129.452519 L70.3051836,129.488305 C73.754532,129.617221 75.7030076,129.39912 77.7461873,128.562386 C79.4743525,127.854809 80.8021019,126.901069 82.9827228,124.886235 L83.5862054,124.322385 L84.1959142,123.742592 C85.9616463,122.05198 87.4952643,119.754804 90.2903069,114.740081 L90.9583886,113.533636 L93.2161062,109.403075 L93.9089754,108.15217 L94.3858739,107.301702 C96.6336617,103.317323 98.0728008,101.133707 99.6196825,99.4749761 L99.9129936,99.1679803 L100.318596,98.7668941 C100.745741,98.3579216 101.432564,98.4069346 101.797306,98.8724176 L102.549141,99.8439456 L103.109337,100.582867 C103.961327,101.715883 104.872065,102.967702 105.924126,104.445709 L106.930454,105.866964 L110.780025,111.349073 L112.746299,114.118309 L113.590823,115.283286 C122.110107,126.95391 128.627638,133.356437 136.139782,136.126256 C137.868339,136.76342 141.605568,136.881725 144.919697,136.602126 C149.858003,136.186266 154.151878,124.727392 151.541309,119.635459 C150.835808,118.260186 149.759464,117.070831 148.264093,115.937381 C147.320482,115.222875 146.314551,114.591971 144.824615,113.755864 L144.10105,113.354346 L141.338248,111.840819 L140.672488,111.494796 L140.177585,111.250744 C139.589954,110.967814 138.952503,110.684787 138.118596,110.334579 L137.433833,110.049952 L133.576903,108.486247 L132.650971,108.095668 C128.156823,106.161464 125.64998,104.470373 123.090243,101.346228 C120.70453,98.4336173 119.365114,96.1593592 118.83246,93.556547 C118.533904,92.0965175 118.513655,90.5988012 118.703166,88.7369258 L118.768855,88.1445648 L118.833927,87.6247748 L118.871944,87.3414627 L119.099454,85.7472984 L119.3108,84.1578094 C119.686403,81.0250838 119.813718,77.8637024 119.690762,74.7126665 C119.609024,72.6135606 119.392934,71.3440679 118.819517,70.2246604 C118.189531,68.9939509 117.310949,68.1485241 115.274226,66.6436489 L114.079678,65.7650309 L113.781067,65.5391056 L113.781067,65.5391056 L113.263564,65.1331795 C108.692884,61.4521281 105.431204,56.1792689 104.174379,50.4405861 L104.0743,49.9613084 L103.85122,48.850302 C103.481726,47.1300597 103.03652,46.2246978 102.249541,45.7904187 C101.730322,45.5037714 101.058345,45.4365167 100.02676,45.5358552 Z"/>
      <path fill="#FFF361" d="M141.679205,4.54973338 C140.68496,4.54973338 139.727539,4.71098576 138.828725,5.00250066 C137.257745,2.02642246 134.161945,0 130.597289,0 C127.315295,0 124.434215,1.72020051 122.770916,4.31442045 C121.181265,3.0417347 119.177215,2.27591719 116.993714,2.27591719 C111.840444,2.27591719 107.663267,6.50682257 107.663267,11.7257271 C107.663267,11.7372826 107.664823,11.7488382 107.664823,11.7603937 C102.828446,12.1123126 99.0101713,16.1877434 99.0101713,21.175537 C99.0101713,22.898889 99.4733225,24.5093118 100.268926,25.9001793 C99.4733225,27.2910467 99.0101713,28.9014696 99.0101713,30.6248216 C99.0101713,35.3310801 102.410935,39.2221474 106.856772,39.9438437 C108.204215,43.4840426 111.586826,46 115.557064,46 C120.710334,46 124.88803,41.7690946 124.88803,36.5507154 C124.88803,35.3993628 124.674348,34.301586 124.302478,33.2815465 C126.703811,32.4437695 128.657033,30.6447812 129.719739,28.3347226 C133.424949,28.2233691 136.586098,25.9332702 137.991111,22.6788084 C139.122797,23.1725453 140.368586,23.4488279 141.679205,23.4488279 C146.832475,23.4488279 151.010171,19.2179225 151.010171,13.999018 C151.010171,8.78063875 146.832475,4.54973338 141.679205,4.54973338 Z"/>
    </g>
    <g transform="translate(409 19)">
      <polygon fill="#F94B4B" points="50 359.648 50 369.596 34.177 369.596 34.177 364.622 0 369.596 31.013 351.596 50 351.596"/>
      <path fill="#F94B4B" d="M85.0888235,350.621566 C79.8232941,353.429319 71.217902,358.739147 59.2726471,366.551052 C70.9170588,364.994824 73.4397059,364.415852 85.0841176,362.859624 C85.0841176,363.897109 85.0841176,365.451395 85.0841176,367.522481 L103.496529,367.522481 L103.496529,358.182681 L103.496529,350.621566 L85.0888235,350.621566 Z"/>
      <path fill="#001CFF" fill-rule="nonzero" d="M36.3964981,160.509776 L31.1744822,162.863818 L26.6828944,177.713197 C22.2965202,192.214735 21.2287652,207.517299 23.5587145,222.487477 L27.4668899,247.597931 C27.8168993,249.846779 27.9009603,252.129012 27.7173375,254.397516 L21.4951246,331.267664 C21.4569483,331.7393 21.4378368,332.212285 21.4378368,332.685464 C21.4378368,342.390767 29.3055392,350.258469 39.0108419,350.258469 L39.3531104,350.255488 C49.7138648,350.074887 58.1051909,341.710722 58.2781583,331.308876 L60.081,222.869542 L60.6870394,220.642085 C60.7910909,220.259346 61.1115126,219.974276 61.5037607,219.915474 C62.0499422,219.833595 62.5590858,220.209987 62.6409646,220.756168 L62.9588527,222.876675 L73.6751071,331.986165 C74.6738358,342.153669 83.2235209,349.904687 93.4399588,349.904687 C94.2897716,349.904687 95.1381442,349.834775 95.9764927,349.695658 C104.418526,348.294769 110.126501,340.315504 108.725612,331.873471 L103.723321,301.728681 C102.793429,296.12497 101.392459,290.609694 99.5353127,285.241521 L97.1845279,278.446461 C93.8572161,268.828701 92.5613722,258.625249 93.3789098,248.48109 L96.8229055,205.747354 C97.3909066,198.69949 96.1265735,191.624517 93.1527069,185.209603 L79.4085433,155.56213 L78.1494417,155.330326 C64.0295986,152.809372 49.4753912,154.613919 36.3964981,160.509776 Z"/>
      <g transform="translate(16.834 13.287)">
        <path fill="#464646" d="M20.6399259,1.79110488 L22.3553182,18.1119727 C22.3722839,18.2733903 22.3695374,18.4362729 22.3471393,18.5970267 L21.1297455,27.3344095 C21.1114749,27.46554 21.0802285,27.5945323 21.0364662,27.7194878 L18.0194712,36.3339904 C17.9482615,36.537317 17.9103711,36.7508135 17.9072646,36.9662268 L17.587,59.0784952 L20.2950678,58.9653055 L21.5178815,58.8984911 L22.3006879,58.8454022 C25.7146534,58.5923887 27.6753501,58.1420252 28.7370551,57.2181013 L30.6806709,52.898302 C31.1626606,67.9395738 43.5076752,79.9850376 58.6660586,79.9850376 L59.3725933,79.976284 C60.0777657,79.9587854 60.7787142,79.9150776 61.4742072,79.8453931 L61.5630586,79.8350376 L61.7337003,80.0736729 C63.639032,82.6903586 65.9825748,84.9105985 68.6352969,86.651387 L67.8433625,89.2207425 L67.3354243,90.8946924 C63.9192295,102.226861 61.6247231,111.375871 60.4520902,118.333846 L60.2965341,119.285537 L60.1553869,120.209082 C58.7453756,129.783072 59.3933932,136.982042 62.0423468,141.800032 C62.1133109,141.929103 62.152488,142.065005 62.1635404,142.20001 L61.3155004,142.043822 C47.1956573,139.522868 32.6414498,141.327415 19.5625567,147.223271 L14.4110836,149.545314 C14.3367194,149.357665 14.3175565,149.124009 14.3642657,148.832746 L14.5095674,147.956858 L14.6918859,146.921222 L14.9069121,145.759685 C15.6182798,141.999822 16.7253769,136.875333 18.2288149,130.38196 L18.6708699,128.482119 L19.5981537,124.54986 C20.8992619,119.076213 19.7063702,113.314877 16.3543168,108.810991 L16.1051961,108.483704 L15.6519053,107.898429 C4.14417886,92.965175 -1.0425592,80.4708553 0.173218404,70.3655878 C0.478228798,67.8304106 1.20474255,65.8286073 2.37271789,64.2596868 L10.6286859,33.8863631 C10.7280477,33.5207857 10.7215352,33.1345061 10.6099065,32.7724859 L5.83998291,17.3032686 C5.64112619,16.6583614 5.7809187,15.9566588 6.21174016,15.4371955 L9.92409522,10.9610207 C10.2575339,10.5589768 10.7350247,10.3033288 11.2544857,10.2487312 L15.312908,9.82217384 C16.4114266,9.70671488 17.2083538,8.72259167 17.0928949,7.62407312 L16.5252793,2.22357167 C16.4098204,1.12505311 17.2067476,0.1409299 18.3052662,0.0254709477 L18.4418252,0.0111180198 C19.5403437,-0.104340933 20.5244669,0.692586332 20.6399259,1.79110488 Z"/>
        <path fill="#FFF" d="M31.1682972,57.2801946 C33.6411538,70.2121968 45.0123216,79.9850376 58.6660586,79.9850376 L59.3725933,79.976284 C60.0777657,79.9587854 60.7787142,79.9150776 61.4742072,79.8453931 L61.5630586,79.8350376 L61.7337003,80.0736729 C63.2174866,82.1114295 64.9670299,83.9087579 66.9213908,85.4264561 L66.1526875,87.9090332 L65.6485345,89.5614481 C61.7588773,102.389901 59.2684189,112.5051 58.1767303,119.917675 L58.0877985,120.537499 C56.8533074,129.377727 57.3476623,136.329835 59.6119084,141.398106 L59.6760586,141.539038 L58.9778158,141.66646 C45.596237,139.734154 31.9207912,141.652282 19.5625567,147.223271 L17.1739321,148.300179 L16.8440487,148.30833 C16.7923306,148.309358 16.7422513,148.309358 16.6938221,148.309358 L16.4790586,148.307038 L16.6436203,147.367578 L16.9659409,145.639031 L17.293957,143.972388 C18.2289176,139.319366 19.6458512,132.997461 21.5439375,125.012381 C22.9843427,118.952724 21.6592502,112.57406 17.9420788,107.594483 L17.2346078,106.675708 C6.01760123,92.1197081 1.01904454,80.078698 2.15889887,70.6044875 C2.93473949,64.1558763 6.87016602,61.8399007 15.1850153,61.2156998 L16.6293824,61.1249064 L18.9039262,61.025923 L20.7997729,60.9467031 L21.563466,60.9084383 L22.3327244,60.8635871 C24.5365415,60.7235995 25.8391766,60.5295322 27.1705029,60.1417331 C29.0710652,59.5881224 30.4261491,58.662508 31.1682972,57.2801946 Z"/>
      </g>
      <path fill="#464646" d="M43.146945 27.6287859C43.0498585 28.496306 43 29.3781017 43 30.2715425L43.003917 30.7033959C43.1369454 38.0331482 46.6508255 44.7516211 52.3853718 49.0616295L52.57 49.1975425 52.5512168 49.2251355C50.9005159 51.581094 49.6278692 54.1666634 48.7729011 56.9004685 48.1655882 55.9250765 47.271959 55.1136204 46.1456784 54.6066994 46.050363 54.5637995 45.9539429 54.5233976 45.8565167 54.485535L39.8784811 52.1623045C37.8193717 51.3620774 36.7988459 49.0441272 37.599073 46.9850177L37.6591488 46.8390329 42.0310506 36.7838064 40.1989543 34.8023639C39.5712409 34.1234815 39.4907069 33.1028143 40.0041834 32.3338881L43.146945 27.6287859zM53.838796.393224922L61.3468664 5.95791017C61.7480296 6.25523647 62.0228103 6.69134114 62.1185902 7.17980029 58.0082844 7.95462071 54.2772446 9.79924203 51.2243306 12.4130892 51.482614 11.8765524 51.4916551 11.2421733 51.2283846 10.6881108L47.9672611 3.82495452C47.4932047 2.82728509 47.9176769 1.63421556 48.9153463 1.16015915 48.9871239 1.12605303 49.0608705 1.09625527 49.1361938 1.07092437L52.0103978.104341562C52.6304321-.104173396 53.3132491.00371036407 53.838796.393224922z"/>
      <path fill="#F94B4B" fill-rule="nonzero" d="M66.5,6.77154247 C53.5213084,6.77154247 43,17.2928509 43,30.2715425 L43.003917,30.7033959 C43.1369454,38.0331482 46.6508255,44.7516211 52.3853718,49.0616295 L52.57,49.1975425 L52.5512168,49.2251355 C49.2859707,53.8854496 47.5,59.4442007 47.5,65.2715425 C47.5,80.7355155 60.036027,93.2715425 75.5,93.2715425 L76.2065347,93.2627889 C76.9117071,93.2452903 77.6126555,93.2015825 78.3081486,93.1318979 L78.397,93.1215425 L78.5676417,93.3601777 C83.5122427,100.150841 91.4080844,104.271542 100,104.271542 C114.635546,104.271542 126.5,92.4070883 126.5,77.7715425 L126.495992,77.3073008 C126.37059,70.0480884 123.308265,63.2973824 118.125335,58.4392731 L117.715,58.0625425 L117.83843,57.8307791 C119.904011,53.8313962 121,49.3801498 121,44.7715425 C121,29.0314271 108.240115,16.2715425 92.5,16.2715425 L91.8241542,16.2794042 C90.0247921,16.321305 88.2492811,16.5304675 86.5145227,16.9014261 L85.92,17.0355425 L85.8560144,16.941196 C81.5085664,10.636309 74.3342891,6.77154247 66.5,6.77154247 Z"/>
    </g>
  </g>
</svg>
