<svg xmlns="http://www.w3.org/2000/svg" width="289" height="459" viewBox="0 0 289 459" aria-hidden="true" focusable="false">
    <g fill="none" fill-rule="evenodd">
        <path fill="#464646" fill-rule="nonzero" d="M289 110h-2v-5h2v5zm0 10h-2v-5h2v5zm0 10h-2v-5h2v5zm-209-5h2v5h-2v-5zm0-10h2v5h-2v-5zm0-10h2v5h-2v-5zm37-5v2h-5v-2h5zm10 0v2h-5v-2h5zm10 0v2h-5v-2h5zm10 0v2h-5v-2h5zm10 0v2h-5v-2h5zm10 0v2h-5v-2h5zm10 0v2h-5v-2h5zm10 0v2h-5v-2h5zm10 0v2h-5v-2h5zm10 0v2h-5v-2h5zm20 0v2h-5v-2h5zm10 0v2h-5v-2h5zm10 0v2h-5v-2h5zm40 0v2h-5v-2h5zM87 133v2h-5v-2h5zm10 0v2h-5v-2h5zm10 0v2h-5v-2h5zm10 0v2h-5v-2h5zm10 0v2h-5v-2h5zm10 0v2h-5v-2h5zm10 0v2h-5v-2h5zm10 0v2h-5v-2h5zm10 0v2h-5v-2h5zm10 0v2h-5v-2h5zm10 0v2h-5v-2h5zm50 0v2h-5v-2h5zm10 0v2h-5v-2h5zm10 0v2h-5v-2h5zm10 0v2h-5v-2h5zm10 0v2h-5v-2h5zm10 0v2h-5v-2h5z"/>
        <path fill="#FF7FB1" d="M129 74.5c0 19.054-15.446 34.5-34.5 34.5C75.446 109 60 93.554 60 74.5 60 55.446 75.446 40 94.5 40c19.054 0 34.5 15.446 34.5 34.5"/>
        <path fill="#464646" fill-rule="nonzero" d="M289 10h-2V5h2v5zm0 10h-2v-5h2v5zm0 10h-2v-5h2v5zM80 25h2v5h-2v-5zm0-10h2v5h-2v-5zm0-10h2v5h-2V5zm7-5v2h-5V0h5zm0 33v2h-5v-2h5zM97 0v2h-5V0h5zm0 33v2h-5v-2h5zm10-33v2h-5V0h5zm0 33v2h-5v-2h5zm10-33v2h-5V0h5zm0 33v2h-5v-2h5zm10-33v2h-5V0h5zm0 33v2h-5v-2h5zm10-33v2h-5V0h5zm0 33v2h-5v-2h5zm10-33v2h-5V0h5zm0 33v2h-5v-2h5zm10-33v2h-5V0h5zm0 33v2h-5v-2h5zm10-33v2h-5V0h5zm0 33v2h-5v-2h5zm10-33v2h-5V0h5zm0 33v2h-5v-2h5zm10-33v2h-5V0h5zm0 33v2h-5v-2h5zm10-33v2h-5V0h5zm0 33v2h-5v-2h5zm10-33v2h-5V0h5zm0 33v2h-5v-2h5zm10-33v2h-5V0h5zm0 33v2h-5v-2h5zm10-33v2h-5V0h5zm0 33v2h-5v-2h5zm10-33v2h-5V0h5zm0 33v2h-5v-2h5zm10-33v2h-5V0h5zm0 33v2h-5v-2h5zm10-33v2h-5V0h5zm0 33v2h-5v-2h5zm10-33v2h-5V0h5zm0 33v2h-5v-2h5zm10-33v2h-5V0h5zm0 33v2h-5v-2h5zm10-33v2h-5V0h5zm0 33v2h-5v-2h5z"/>
        <path fill="#FFF361" d="M276.417 71.34L254.886 71.34 244.122 89.431 254.886 107.521 276.417 107.521 287.182 89.431z"/>
        <path fill="#464646" fill-rule="nonzero" d="M0 74h2v5H0v-5zm287 0h2v5h-2v-5zM0 64h2v5H0v-5zm287 0h2v5h-2v-5zM0 54h2v5H0v-5zm287 0h2v5h-2v-5zM7 49v2H2v-2h5zm0 33v2H2v-2h5zm10-33v2h-5v-2h5zm0 33v2h-5v-2h5zm10-33v2h-5v-2h5zm0 33v2h-5v-2h5zm10-33v2h-5v-2h5zm0 33v2h-5v-2h5zm10-33v2h-5v-2h5zm0 33v2h-5v-2h5zm10-33v2h-5v-2h5zm0 33v2h-5v-2h5zm10-33v2h-5v-2h5zm0 33v2h-5v-2h5zm10-33v2h-5v-2h5zm0 33v2h-5v-2h5zm10-33v2h-5v-2h5zm0 33v2h-5v-2h5zm10-33v2h-5v-2h5zm0 33v2h-5v-2h5zm10-33v2h-5v-2h5zm0 33v2h-5v-2h5zm10-33v2h-5v-2h5zm0 33v2h-5v-2h5zm10-33v2h-5v-2h5zm0 33v2h-5v-2h5zm10-33v2h-5v-2h5zm0 33v2h-5v-2h5zm10-33v2h-5v-2h5zm0 33v2h-5v-2h5zm10-33v2h-5v-2h5zm0 33v2h-5v-2h5zm10-33v2h-5v-2h5zm0 33v2h-5v-2h5zm10-33v2h-5v-2h5zm0 33v2h-5v-2h5zm10-33v2h-5v-2h5zm0 33v2h-5v-2h5zm10-33v2h-5v-2h5zm0 33v2h-5v-2h5zm10-33v2h-5v-2h5zm0 33v2h-5v-2h5zm10-33v2h-5v-2h5zm0 33v2h-5v-2h5zm10-33v2h-5v-2h5zm0 33v2h-5v-2h5zm10-33v2h-5v-2h5zm0 33v2h-5v-2h5zm10-33v2h-5v-2h5zm0 33v2h-5v-2h5zm10-33v2h-5v-2h5zm0 33v2h-5v-2h5zm10-33v2h-5v-2h5zm0 33v2h-5v-2h5zm10-33v2h-5v-2h5zm0 33v2h-5v-2h5zm10-33v2h-5v-2h5zm0 33v2h-5v-2h5z"/>
        <path fill="#464646" d="M136.5 457v2h-5v-2h5zm8.933-1.362l.381 1.964-4.908.954-.382-1.964 4.909-.954zm-22.866 0l4.909.954-.382 1.964-4.908-.954.381-1.964zm-8.464-3.113l4.603 1.954-.782 1.84-4.602-1.953.781-1.841zm39.826.034l.75 1.854-4.636 1.873-.75-1.854 4.636-1.873zm14.366-10.8l1.414 1.414-3.536 3.536-1.414-1.414 3.536-3.536zm5.353-7.279l1.658 1.118-2.796 4.146-1.658-1.119 2.796-4.145zm3.83-8.186l1.842.782-1.954 4.602-1.841-.781 1.954-4.603zm2.114-8.77l1.964.382-.954 4.908-1.964-.381.954-4.909zM182 408.5v5h-2v-5h2zm-1.398-9.314l.954 4.908-1.964.382-.954-4.909 1.964-.381zm-3.189-8.865l1.873 4.636-1.854.75-1.873-4.636 1.854-.75zm-86.779 0l1.841.782-1.954 4.603-1.84-.782 1.953-4.602zm81.876-8.065l2.796 4.146-1.658 1.118-2.796-4.145 1.658-1.119zm-77.02 0l1.658 1.119-2.796 4.145-1.658-1.118 2.796-4.146zm6.337-6.965l1.414 1.414-3.536 3.536-1.414-1.414 3.536-3.536zm56.771-5.597l4.146 2.796-1.119 1.658-4.145-2.796 1.118-1.658zm-49.196 0l1.118 1.658-4.145 2.796-1.119-1.658 4.146-2.796zm40.674-4.014l4.602 1.954-.781 1.841-4.603-1.954.782-1.84zm-32.119.034l.75 1.854-4.636 1.873-.75-1.854 4.636-1.873zm22.949-2.27l4.908.954-.381 1.964-4.909-.954.382-1.964zm-13.812 0l.382 1.964-4.909.954-.381-1.964 4.908-.954zM136.5 363v2h-5v-2h5z"/>
        <path fill="#001CFF" d="M76.514 393L129 411.484 112.486 459 60 440.516z"/>
        <g fill-rule="nonzero">
            <path fill="#464646" d="M7.998 235.085c-.043.502-.45.887-.941.915h-.115l-6.001-.358c-.524-.031-.928-.46-.94-.973l.003-.11L20 .914c.043-.502.45-.887.941-.915h.115l6.002.358c.524.03.928.46.94.972l-.003.111L22.898 61H62.86L58.004 4.441c-.045-.523.32-.985.827-1.071l.11-.013L64.96 3c.502-.028.941.319 1.039.8l.016.114 19.981 232.644c.045.524-.32.985-.827 1.072l-.11.012-6.019.36c-.502.026-.942-.32-1.04-.803l-.015-.113-3.53-41.087H11.343l-3.345 39.086zM12.113 187h61.569l-2.834-33h-55.91l-2.825 33zm3.595-42h54.367l-2.834-33H18.533l-2.825 33zm3.595-42h47.165l-2.834-33H22.128l-2.825 33z" transform="translate(155 222)"/>
            <path fill="#FFF" d="M66.64 104.999L67.069 109.999 18.704 109.999 19.132 104.999zM73.854 189L74.284 194 11.515 194 11.943 189zM70.247 147L70.676 152 15.109 152 15.537 147zM63.032 63L63.462 68 22.299 68 22.727 63zM21.911 2.056L25.915 2.293 6.088 233.943 2.083 233.706zM64.105 5.055L83.915 235.706 79.894 235.943 60.084 5.292z" transform="translate(155 222)"/>
        </g>
        <g>
            <path fill="#F94B4B" d="M12 289l10.775-18.679.042.04c3.4 3.094 7.268 4.412 10.09 2.371l.187-.14.157-.133.262 1.799.315 2.244.16 1.203.232 1.89.165 1.467c.187 1.75.327 3.442.419 5.079l-10.68.674-1.244-3.566L12 289z" transform="translate(179 43)"/>
            <path fill="#F94B4B" fill-rule="nonzero" d="M30.529 313L16 326.661 28.651 324.58 28.651 328.483 44 329 44 313z" transform="translate(179 43)"/>
            <path fill="#001CFF" fill-rule="nonzero" d="M40.09 166.858c.735.078 1.488.175 2.408.309l3.377.51.936.135.883.121.433.057c3.01.385 9.816 1.661 11.206 2.268 1.66.724 2.872 2.162 3.908 4.244 2.387 4.79 3.084 10.406 2.628 17.452l-.06.839c-.511 6.672-1.945 12.548-5.17 22.543l-2.362 7.217-.583 1.814-.404 1.279c-1.955 6.237-2.95 10.194-3.652 14.7l-.12.799c-.73 4.987-.39 10 .997 19.196l.883 5.712.32 2.146.167 1.167c.88 6.252 1.104 9.761.843 13.7-.729 11.032-4.52 20.119-12.728 32.93V313H30.529l-.931.875c.255-1.076.68-2.183 1.434-3.907l.574-1.313.183-.433c3.13-7.522 3.765-16.184 2.596-27.16l-.165-1.467-.233-1.89-.16-1.203c-.131-.97-.281-2.028-.46-3.258l-.116-.785-.157.132c-2.837 2.24-6.8.933-10.277-2.23l-.226-.21-.224-.213C11.663 259.573 4.624 244.99 2.107 228.96.108 216.234.854 202.64 4.01 188.483c1.552-6.966 3.627-11.087 7.978-14.256l.392-.278c3.818-2.652 8.147-4.32 14.523-5.937 5.236-1.328 8.948-1.6 13.186-1.154zm-6.927 40.898c-.438 0-.91.369-1.638 1.266l-.699.869-.68.86c-5.538 7.075-7.769 11.666-7.45 17.05l.039.514c.211 2.377.913 4.5 2.587 8.43l.557 1.303.36.856.347.847c1.416 3.52 2.51 6.968 3.927 12.212l.545 2.045-.01-.206c-.024-.542-.044-1.079-.058-1.615l-.012-.535c-.107-5.56.3-10.546 1.398-19.182l.718-5.572.225-1.8.287-2.4c.569-4.916.801-8.113.861-11.839.03-1.782-.557-3.101-1.304-3.103z" transform="translate(179 43)"/>
            <path fill="#464646" d="M55.342 90.204l3.238 9.01c.063.176.115.356.154.54l.049.277 1.174 8.26c.105.74.014 1.438-.223 2.058.025.341.042.69.053 1.044.231 7.289-1.123 14.767-3.95 23.778l-1.202 3.732-.32 1.01c-1.85 5.904-2.427 9.07-2.1 12.816.332 3.81 1.527 6.935 4.498 12.699l1.082 2.088.671 1.314.459.917.214.435c-1.63-.593-7.365-1.68-10.45-2.116l-.562-.076-.433-.057-.883-.121-.936-.136-3.377-.51-.751-.105c-.598-.082-1.132-.147-1.658-.203-4.238-.447-7.95-.174-13.186 1.154-6.17 1.566-10.423 3.178-14.152 5.683l-.371.254-.392.278c-.76.554-1.451 1.137-2.082 1.759 1.753-2.695 3.032-5.343 3.831-8.014l-.116.007c-1.491.064-4.033.016-5.396-.602-1.6-.724-2.773-2.146-3.855-3.546-1.522-1.968-3.005-4.038-3.742-6.427-.805-2.611-.662-5.426-.51-8.147l1.197-21.548c.18-3.253.104-6.655.825-9.809.4-1.748.96-3.527 1.858-5.14-.096-4.268 3.283-6.937 8.923-8.32.859.703 1.86 1.21 2.947 1.463-.371.972-.577 2.037-.577 3.155 0 4.546 3.39 8.231 7.57 8.231 1.398 0 2.706-.414 3.83-1.132.607 3.884 3.715 6.843 7.46 6.843 4.18 0 7.57-3.685 7.57-8.232 0-.151-.005-.301-.012-.451h.012c4.18 0 7.569-3.685 7.569-8.23 0-2.295-.864-4.37-2.257-5.863.124-.76.193-1.54.193-2.34 0-.484-.026-.96-.072-1.43.272.032.548.05.828.05 3.569 0 6.56-2.685 7.36-6.3zM12.655 144.93c-.207 2.335-.313 4.667-.305 7 .003 1.3.144 2.817 1.22 3.52.14.092.365.164.632.222l-.21-1.49-1.107-7.58-.23-1.672zM33.265.002c.484-.04.655.627.652 1.116l-.045 5.434c-.003.406.013.862.306 1.142.217.207.531.262.798.396.76.381 1.037 1.34 1.035 2.194-.003.853-.201 1.713-.053 2.553.313 1.768 2.032 2.921 2.778 4.553 1.254 2.74-.488 5.85-.78 8.85-.242 2.478.528 4.925.839 7.4.095.21.176.43.237.659l.054.232 3.355 16.58.043.192.053.19 2.166 7.135C42.658 56.388 39.823 55 36.69 55c-2.086 0-4.04.616-5.717 1.689V35.352c0-.213.022-.42.052-.624l.045-6.045c.005-.6.004-1.224-.26-1.761-.306-.623-.913-1.028-1.47-1.44-2.365-1.757-4.207-4.194-5.328-6.922l-.156-.392c-.489-1.28-2.249-8.935 1.383-5.811.628.54.954 1.352 1.117 2.172l.04.224c.108.655.315 1.51.975 1.546.598.032.93-.67 1.099-1.248L32.638.777c.1-.341.274-.747.627-.775z" transform="translate(179 43)"/>
            <path fill="#FFF" fill-rule="nonzero" d="M54.323 102.838c2.263 1.383 3.332 4.41 3.465 8.618.223 7.03-1.094 14.305-3.861 23.123l-.256.806-1.106 3.425-.33 1.052c-1.794 5.81-2.358 9.084-2.013 13.04.341 3.907 1.483 7.068 4.195 12.428l.259.51 1.535 2.97.356.697-.827-.18-1.004-.206c-2.055-.413-4.342-.811-5.951-1.042l-.658-.09-.433-.056-.883-.121-.936-.136-3.377-.51-.751-.105-.856-.111c-.274-.034-.539-.064-.802-.092-4.238-.447-7.95-.174-13.186 1.154-5.53 1.403-9.52 2.844-12.972 4.931 2.373-4.907 3.259-9.821 2.584-15.076l-.203-1.542-.147-1.064-1.284-8.827-.218-1.58-.238-1.835c-.123-1.067-.137-2.053-.067-3.658l.035-.728.102-1.882.033-.73.023-.719c.022-.909.007-1.63-.052-2.345l-.047-.488-.053-.44c-.448-3.406-1.591-5.954-4.478-10.756l-1.57-2.591-.561-.954c-1.049-1.81-1.564-3.008-1.734-4.28-.507-3.767 2.59-6.131 8.497-7.323.42-.085.847-.162 1.28-.232l.035.01c-.371.972-.577 2.037-.577 3.155 0 4.546 3.39 8.231 7.57 8.231 1.398 0 2.706-.414 3.83-1.132.607 3.884 3.715 6.843 7.46 6.843 4.18 0 7.57-3.685 7.57-8.232 0-.151-.005-.301-.012-.451h.012c4.18 0 7.569-3.685 7.569-8.23 0-1.359-.303-2.64-.838-3.768l.128-.031c2.24-.51 4.258-.357 5.743.55z" transform="translate(179 43)"/>
            <path fill="#F94B4B" d="M58 73.76c0-6.78-5.055-12.277-11.29-12.277l-.063.002C44.744 57.625 41 55 36.691 55c-3.718 0-7.016 1.955-9.073 4.97-1.446-.732-3.057-1.143-4.758-1.143-3.53 0-6.681 1.763-8.752 4.523-.794-.307-1.647-.476-2.538-.476-4.181 0-7.57 3.686-7.57 8.231 0 2.844 1.326 5.35 3.342 6.829-.75 1.642-1.174 3.492-1.174 5.45 0 4.189 1.932 7.887 4.877 10.102-.73 1.267-1.155 2.763-1.155 4.37 0 3.952 2.562 7.252 5.978 8.047-.371.972-.577 2.037-.577 3.155 0 4.546 3.39 8.231 7.57 8.231 1.398 0 2.706-.414 3.83-1.132.607 3.884 3.715 6.843 7.46 6.843 4.18 0 7.57-3.685 7.57-8.232 0-.151-.005-.301-.012-.451h.012c4.18 0 7.569-3.685 7.569-8.23 0-2.295-.864-4.37-2.257-5.863.124-.76.193-1.54.193-2.34 0-.484-.026-.96-.072-1.43.272.032.548.05.828.05 4.18 0 7.57-3.685 7.57-8.231 0-1.918-.605-3.68-1.616-5.08C56.419 80.941 58 77.553 58 73.761" transform="translate(179 43)"/>
        </g>
    </g>
</svg>
