<svg xmlns="http://www.w3.org/2000/svg" width="364" height="284" viewBox="0 0 364 284">
    <g fill="none" fill-rule="evenodd">
        <g>
            <path fill="#F94B4B" d="M14.228 149.452L10 152.482 14.747 159.291 16.861 157.777 25 174 23.347 155.172 17.651 147zM37 171.026L37 176 45.861 176 45.861 173.513 65 176 47.633 167 37 167z" transform="translate(11 107)"/>
            <g fill-rule="nonzero">
                <path fill="#464646" d="M19.48 13.571l.113.58c.549 2.777 1.217 5.182 2.639 9.766L23.25 27.2c1.157 3.778 1.727 5.91 2.217 8.41l.055.279c.282 1.469.308 2.33.017 3.075-.294.752-.844 1.308-2.162 2.314-1.88 1.435-3.35 2.372-5.367 3.48l-.94.508-1.344.723c-1.813.982-2.804 1.563-4.136 2.441l-1.608 1.074c-.314.206-.64.42-.996.649l-2.465 1.584c-1.626 1.053-2.658 1.775-3.538 2.508C.995 55.899 0 57.505 0 59.465c0 4.167 2.722 8.905 6.429 10.98 1.763.987 3.167.657 4.618-.69l.168-.16c.308-.302 1.39-1.476 1.345-1.428.328-.347.613-.625.895-.867l.66-.54c3.005-2.433 5.66-4.462 11.14-8.564l4.801-3.606c3.293-2.488 5.377-4.114 7.79-6.077l.636-.523c2.647-2.2 3.89-3.59 4.73-5.656.797-1.959.905-3.815.693-7.182-.582-9.255-1.77-18.472-3.55-27.572-.22-1.125-.45-2.243-.686-3.356-.296-1.392-.597-2.148-1.363-2.784-.704-.586-1.4-.75-2.709-.847L28.396.057C19.869-.577 17.695 4.099 19.48 13.57z" transform="translate(11 107) translate(16 85.996)"/>
                <path fill="#FFF" d="M12.467 50.248c1.396-.929 2.358-1.496 4.23-2.51l1.787-.962c2.356-1.27 3.99-2.292 6.106-3.908 1.605-1.225 2.34-1.968 2.812-3.177.438-1.122.435-2.217.145-3.846l-.174-.906c-.512-2.55-1.12-4.779-2.337-8.736l-1.17-3.774c-1.303-4.235-1.901-6.478-2.42-9.229l-.123-.676c-1.368-7.873.26-10.968 6.925-10.473l7.2.536c.903.067 1.305.162 1.58.39.302.252.48.698.685 1.663.234 1.102.46 2.21.679 3.324 1.764 9.014 2.94 18.145 3.517 27.313l.042.74c.132 2.61.003 4.103-.591 5.564-.71 1.744-1.857 2.985-4.479 5.137l-1.273 1.033c-2.252 1.813-4.402 3.471-7.824 6.048l-7.633 5.73c-3.291 2.488-5.376 4.115-7.789 6.078-.333.27-.649.563-.991.912l-.405.426c-.292.316-.948 1.023-1.15 1.221-.938.918-1.466 1.063-2.41.534C4.335 66.982 2 62.915 2 59.465c0-1.263.688-2.372 2.262-3.683l.16-.127c.879-.683 3.281-2.29 5.16-3.525l2.885-1.882z" transform="translate(11 107) translate(16 85.996)"/>
            </g>
            <g fill-rule="nonzero">
                <path fill="#464646" d="M4.573.52l-.458.344C1.011 3.267 0 5.596 0 10.86c0 3.162.996 5.829 2.805 8.534l.168.245c.589.84 1.86 2.544 2.055 2.86 1.299 2.112 2.138 4.563 2.83 7.893l.103.506c.396 1.996.842 3.827 1.348 5.582l.102.337c.643 2.064 2.818 8.236 3.025 9.642.065.444.097.874.097 1.306l.013 1.627.672 24.348c.128 5.05.192 8.515.192 10.701 0 2.53 4.162 2.994 9.764 2.252 2.251-.298 4.385-.79 5.906-1.38 2.008-.78 3.145-1.769 2.644-3.131l-.138-.34c-.737-1.91-2.517-9.513-3.87-16.474l-.15-.785c-.634-3.316-1.289-9.615-1.326-11.69l-.001-.172c0-1.283.165-2.46.568-4.333l.336-1.516c.794-3.609.895-4.955.21-6.606l-.259-.615c-.677-1.717-.676-3.157.195-9.749l.653-4.801c.644-4.66 1.021-8.303 1.194-12.26.172-3.957-.233-6.263-2.069-8.054-1.423-1.39-3.062-1.883-6.115-2.22l-8.757-.904c-.383-.039-.763-.143-1.602-.443L9.325.755C6.975-.1 5.692-.297 4.573.52z" transform="translate(11 107) translate(19.837 82.56)"/>
                <path fill="#FFF" d="M15.411 84.427l-.018-2.35c-.022-1.638-.062-3.683-.122-6.185l-.738-28.128c0-.53-.04-1.058-.119-1.596-.253-1.724-2.767-8.8-3.183-10.243-.42-1.459-.799-2.971-1.14-4.595l-.168-.822c-.754-3.803-1.68-6.6-3.191-9.058l-.127-.192c-.467-.681-1.77-2.426-2.138-2.977C2.861 15.878 2 13.574 2 10.859l.006-.677c.077-4.374.951-6.003 3.747-8.047.3-.219 1.05-.13 2.411.331l.666.237.97.357c1.105.4 1.576.529 2.19.592l8.398.866c2.847.293 4.239.68 5.282 1.7 1.288 1.256 1.616 3.123 1.468 6.534-.16 3.657-.498 7.047-1.067 11.272l-.815 5.807-.166 1.258c-.15 1.185-.254 2.161-.322 3.063-.215 2.834-.064 4.885.584 6.515l.101.241c.522 1.188.447 2.305-.27 5.568l-.153.682c-.561 2.488-.791 3.917-.791 5.562l.006.389c.07 2.3.681 8.149 1.298 11.538l.136.719C27.046 72.46 28.845 80.19 29.7 82.5l.071.186-.007.003-.03.022c-.245.222-.72.48-1.376.735-1.355.526-3.34.984-5.445 1.263-2.13.282-4.182.354-5.664.188-.734-.082-1.297-.219-1.639-.39l-.157-.078c-.028-.013-.038-.013-.04-.003z" transform="translate(11 107) translate(19.837 82.56)"/>
            </g>
            <path fill="#001CFF" d="M27.782 28.707l-1.18 1.381 4.693 1.7c2.052.743 4.217 1.152 6.408 1.212l3.528-1.644c.098-.007.17-.031.214-.073l.031-.044-.032-.076.015.007c.09.065.58.62 2.652 3.285 5.015 6.451 6.166 15.286 6.944 23.458l.283 3.042.328 3.569c.674 7.24 1.362 13.434 3.318 21.576.433 1.802-.046 4.255-1.666 5.302-.855.552-1.928.593-2.942.597-8.596.038-17.965-1.29-26.16-3.92-.578-.185-1.173-.388-1.617-.806-.61-.576-.828-1.457-.932-2.295-.548-4.42 1.964-6.078 2.107-10.272l-.913.783-.193.157-.161.127-.239.175c-1.516 1.077-3.12 1.562-4.978 1.199-2.777-.543-7.404-3.147-10.94-6.27C1.903 66.951-.458 62.7.395 58.731c.347-1.615 1.454-3.424 3.384-5.76l.458-.546.599-.694.521-.59c.272-.303.562-.623.875-.965l.833-.905 3.164-3.4.964-1.053.816-.908c1.84-2.068 3.247-3.8 4.437-5.502l.512-.741c1.62-2.338 2.848-3.744 4.458-4.888.698-.496 1.393-.895 2.08-1.195 1.758-1.928 3.577-3.428 4.902-3.665-.193.272-.4.534-.616.788zm-8.998 27.997l-.153.117c-1.267.95-2.546 1.796-3.803 2.495l-.537.291-.088.045.059.085c.586.794 1.975 1.81 4.172 3.077l.783.442c.364.2 1.333.734 2.152 1.19-.518-1.37-1.044-2.74-1.493-4.123-.326-1.006-.626-1.974-.896-2.916l-.196-.703z" transform="translate(11 107)"/>
            <path fill="#000" d="M44.457 7.697l-.574-.977C40.859 1.575 33.759.461 29.209 4.245c-3.44 2.862-4.212 8.375-1.84 12.114l3.266 5.146.01.039c-.128 2.624-1.132 5.137-2.863 7.163l-1.18 1.381 4.693 1.7c2.052.743 4.217 1.152 6.408 1.212l3.773-1.76-1.777-4.212-.005-.02.127-4.513.03-.025c3.458.421 6.63-1.96 7.01-5.305.293-2.587.135-5.259-.587-6.456l-1.817-3.012zM40.68 70.221c.457.17.517.844.21 1.194-.308.35-.82.448-1.297.488l-.36.028c-.363.03-.722.08-1.027.256-.07.041-.139.09-.182.159-.123.199.025.481.24.6.214.118.468.12.71.132 1.63.075 3.253.709 4.52 1.766.1.084.204.177.238.3.065.233-.158.451-.397.486-.239.034-.48-.058-.714-.135-1.112-.367-2.316-.427-3.433-.17-.137.031-.291.083-.337.214-.084.245.26.396.542.429l.075.006c1.212.051 2.423.321 3.555.792.226.095.459.203.616.39.158.188.217.476.072.66-.191.243-.566.174-.885.07l-.104-.035c-1.09-.387-2.246-.572-3.387-.544-.38.01-.886.215-.764.574.067.198.292.282.506.33l.09.019c.933.175 1.86.393 2.775.655.29.083.595.18.795.407.2.226.226.621-.024.77-.162.098-.374.062-.564.023l-3.168-.64c-.29-.058-.679-.064-.763.207-.097.31.307.518.652.602l.085.018c.57.11 1.133.275 1.675.496.319.13.693.4.596.715-.096.31-.52.3-.862.218l-.09-.024c-1.948-.561-3.946-.926-5.952-1.087l-.848-.065c-1.33-.108-2.682-.286-3.715-1.113-.378-.303-.697-.683-1.114-.93-.323-.192-.687-.294-1.053-.378l-6.525-1.442c.408-.195.807-.434 1.201-.714l.239-.175.161-.127.193-.157 1.013-.873c1.073-.882 1.75-2.197 1.963-3.577l4.193 1.612c.248.096.505.193.767.18.228-.01.437-.104.637-.21l.15-.08c2.62-1.426 5.603-2.242 8.647-2.364.15-.006.306-.01.45.044z" transform="translate(11 107)"/>
            <path fill="#FF7FB1" d="M30.327 20.246c-.185-.623-.62-1.124-.968-1.665-.846-1.313-1.205-2.959-.987-4.524.071-.511.24-1.068.671-1.32.255-.149.56-.165.851-.148 1.735.099 3.362 1.339 3.98 3.032.176.487.354 1.086.838 1.212.592.154 1.064-.56 1.143-1.19.105-.832-.116-1.668-.149-2.506-.033-.838.196-1.79.9-2.195.35-.201.797-.255 1.051-.577.338-.428.148-1.073-.113-1.556-.262-.482-.593-.998-.49-1.541.094-.495.528-.842.97-1.046 2.257-1.044 5.227.394 7.204-1.148.671-.524 1.082-1.642.479-2.25-.213-.213-.505-.312-.787-.406l-1.35-.446C41.31 1.226 39.039.477 36.69.157c-2.348-.32-4.801-.19-6.982.772-4.505 1.99-5.817 7.04-5.701 11.764.054 2.22.636 4.49 1.994 6.2.527.662 1.157 1.228 1.7 1.877.276.329.534.684.876.936.343.252.799.387 1.186.22.207-.089.362-.25.467-.448.188-.356.216-.833.097-1.232z" transform="translate(11 107)"/>
        </g>
        <path fill="#F94B4B" d="M327.936 239L369 253.271 356.064 290 315 275.729z" transform="rotate(-19 342 264.5)"/>
        <path fill="#FFF361" d="M100 50.35L47.35 103 0 55.65 52.65 3z"/>
    </g>
</svg>
