<svg xmlns="http://www.w3.org/2000/svg" width="86" height="86" viewBox="0 0 86 86" aria-hidden="true" focusable="false">
    <g fill="none" fill-rule="evenodd">
        <g transform="matrix(-1 0 0 1 86 0)">
            <circle cx="43" cy="43" r="43" fill="#FFF"/>
            <path fill="#464646" fill-rule="nonzero" d="M66.917 33.224l-.023.094c-.657 2.72-1.887 5.232-3.61 7.366-.41.419-.533 1.088-.246 1.632.656 1.59 1.23 3.265 1.805 4.897.44 1.269.137 1.697-1.142 1.559l-.089-.01c-1.558-.168-3.076-.419-4.717-.628v3.892c0 2.92-.886 3.993-3.592 4.247l-.264.022c-.697.042-.779.418-.86.92l-.026.206c-.2 1.812.106 3.73 2.324 6.237-.259.415-.58.82-.96 1.209l.097.133c-.452-.628-.903-1.214-1.354-1.8-1.477-1.967-1.764-4.227-1.354-6.612.2-1.135.783-1.72 1.9-1.832l.338-.028c2.145-.201 2.63-.983 2.233-3.33-3.076 1.256-7.212-.485-9.29-3.557-.34-.738.364-1.512 1.304-.629l.208.205.158.15c1.727 1.608 4.618 3.302 7.785 1.78-.035-.453-.097-.906-.117-1.36l-.007-.272c-.04-1.088.247-1.339 1.313-1.213l4.348.585-.455-1.293-.44-1.262c-.365-1.04-.728-2.053-1.115-3.053l-.068-.194c-.231-.696-.253-1.208.724-1.438 1.354-.905 3.918-5.19 4.594-7.826.613-.12.812.28.598 1.203zM56 37c.552 0 1 .672 1 1.5s-.448 1.5-1 1.5-1-.672-1-1.5.448-1.5 1-1.5z"/>
            <path fill="#001CFF" fill-rule="nonzero" d="M59.886 63.255c4.358 1.69 8.053 4.7 10.543 8.656 1.08 1.731.562 2.938-.996 4.122-14.94 11.358-39.546 16.24-56.826-3.133-.49-.549-.872-1.195-.374-1.896 1.412-1.896 2.823-3.792 4.193-5.73l.045.083.093.175c1.087 2.088 2.77 6.67 4.428 6.255 1.73-.433.955-5.358 1.162-7.584l.224.277c1.692 2.128 4.467 6.263 5.712 5.947 1.301-.33.498-3.42.623-4.451.553.879 1.04 1.823 1.638 2.688l.23.32c.29.413.871.99 1.286.949.83-.083.789-.866.747-1.525-.033-1.089-.093-2.177-.136-3.244l-.031-.852-.04-.026c11.104 7.528 21.587 4.04 24.407-.371.83-1.072 1.951-1.072 3.072-.66z"/>
            <path fill="#FFF361" fill-rule="nonzero" d="M16.77 65.351c-3.209-9.807-1.81-19.32 2.223-28.54 3.745-8.634 9.382-15.717 17.365-20.662C40.514 13.593 44.958 12 49.896 12c6.996.042 12.222 3.185 15.884 9.178 1.605 2.766 2.675 5.784 3.127 8.969.124.461.124.922 0 1.341-.123.252-.864.587-.946.461-6.481-3.662-14.946-5.83-23.702 4.736-.535.964-1.363 1.988-1.81-.126-.449-2.113-3.558-3.06-4.445.587-.165.922-.165 1.886.041 2.808.206.712 0 1.467-.535 1.928-.617.587-5.431 3.722-4.855 22.547.04 1.341.123 2.724.164 4.108.041.67.083 1.466-.74 1.55-.412.042-.988-.545-1.276-.964-.7-.964-1.235-2.053-1.852-3.06-.123 1.049.673 4.192-.617 4.527-1.29.335-4.238-4.275-5.884-6.328-.206 2.263.563 7.27-1.153 7.711-1.715.44-3.456-4.652-4.526-6.622z"/>
        </g>
    </g>
</svg>
