<svg xmlns="http://www.w3.org/2000/svg" width="85" height="85" viewBox="0 0 85 85" aria-hidden="true" focusable="false">
    <g fill="none" fill-rule="evenodd">
        <circle cx="42.5" cy="42.5" r="42.5" fill="#FFF"/>
        <path fill="#464646" fill-rule="nonzero" d="M25.007 64L24 62.389c1.385-.197 2.056-1.1 2.56-2.201 1.426-3.105 1.678-6.406 1.804-9.708.042-1.493 0-2.987 0-4.48l1.636.904c-.084 2.24.042 4.52-.252 6.72-.545 3.852-.755 7.9-4.741 10.376zM51.358 65.839L50.481 67c-.279-.337-.518-.674-.797-.974-1.594-1.648-2.272-3.857-1.913-6.03.239-1.685.598-2.022 2.391-2.172 1.674-.112 2.153-.6 2.192-2.172v-1.274c-.12-.037-.199-.075-.318-.075-4.265.572-5.893-.883-6.994-3.143-.298-.887 1.084-1.207 1.417-.527 1.135 2.315 2.457 2.285 4.899 2.285.802 0 1.116-.45 1.036-1.236-.12-.862.399-1.686 1.276-2.023 1.554-.562 2.192-1.348 1.753-2.884-.336-.861 0-1.079.32-1.423 2.707-2.399 3.63-4.64 4.145-6.592l.199-.187c.319-.374.677-.786 1.036-1.124.28-.187.558-.337.877-.449-.678 3.52-2.112 6.704-5.142 9.326.678 2.284.12 3.97-2.55 4.644-.24.075-.519.6-.519.899-.04 1.273.04 2.51.04 3.783-.04 2.322-1.076 3.408-3.547 3.483-.837.037-.997.374-1.076 1.011-.439 2.36.598 4.082 2.152 5.693z"/>
        <path fill="#001CFF" fill-rule="nonzero" d="M23.728 62.25c6.334 7.613 17.937 12.383 28.141 4.323.775-.986 1.82-.986 2.865-.607 4.064 1.555 7.51 4.322 9.832 7.962 1.045 1.63 0 2.73-1.006 3.867-2.206 2.496-5.01 4.077-8.155 5.21-3.83 1.22-7.897 1.91-12.113 1.988L42.71 85c-1.106-.005-2.215-.045-3.327-.113-11.05-.8-20.93-5.827-28.03-13.47 2.136-3.152 4.747-5.905 8-8.029 1.317-.834 3.697-1.874 4.375-1.137z"/>
        <path fill="#EF3D47" fill-rule="nonzero" d="M24.306 46.115c-5.19 2.325-11.196-10.905-3.971-11.323-4.29-6.7 1.93-10.034 4.36-7.71-.39-5.625 3.348-8.382 8.838-6.668.511-5.252 8.876-6.07 12.069-.82 3.411-6.402 12.4-3.348 12.186 2.123 6.151-1.81 10.835 7.248 6.151 8.977 6.965 2.462.43 10.943-3.698 8.27-1.376 3.762-8.315 2.033-8.994-2.757-.428.26-4.321 3.427-6.268 4.097-1.635.56-4.652 1.453-6.08-2.83-3.748-3.265-4.562 3.845-1.823 5.252-2.1 5.71-11.896 8.962-12.77 3.39z"/>
        <circle cx="52" cy="44" r="1" fill="#464646"/>
    </g>
</svg>
