<svg xmlns="http://www.w3.org/2000/svg" width="144" height="144" viewBox="0 0 144 144">
    <g fill="none" fill-rule="evenodd">
        <g transform="translate(7 4)">
            <path fill="#464646" fill-rule="nonzero" d="M47 59.837v2.308L13.964 81.033l20.679 35.471c1.867 3.202 5.905 4.39 9.21 2.79l.223-.114.213-.116 2.71-1.55v2.307l-1.702.973c-4.184 2.392-9.492 1.111-12.116-2.833l-.148-.23-.137-.228-21.183-36.336c-.259-.443-.135-1.002.27-1.3l.099-.064 34.916-19.966zM13.984 87.07l.133.221 13.618 23.359c2.09 3.583.85 8.166-2.769 10.235-3.543 2.025-8.053.89-10.2-2.522l-.134-.22-13.618-23.36c-2.09-3.583-.85-8.165 2.769-10.234 3.543-2.026 8.053-.891 10.2 2.521zm-9.192-.79c-2.586 1.477-3.515 4.706-2.144 7.301l.113.204 13.618 23.358c1.532 2.628 4.925 3.529 7.578 2.011 2.586-1.478 3.515-4.706 2.144-7.302l-.113-.203-13.618-23.359c-1.532-2.628-4.925-3.528-7.578-2.01zm30.495-61.456l.014.116.527 8.681c3.818-.07 7.611.578 11.171 1.891v2.143c-7.548-3.015-16.32-2.774-23.953 1.29l-.374.202-.387.217C9.916 46.436 4.922 61.457 10.309 74.29l.167.388.098.221L46.999 54.07v2.308L9.694 77.708l-.475-.96c-4.658-9.414-3.872-20.178 1.273-28.641l-7.328-4.792c-.465-.304-.593-.924-.286-1.384.285-.428.845-.568 1.296-.342l.102.058 7.314 4.783c2.464-3.5 5.722-6.53 9.687-8.797 3.965-2.267 8.243-3.546 12.537-3.91l-.526-8.664v-.117c.028-.5.43-.91.947-.94.476-.029.895.276 1.027.71l.026.111zM21.233 55.538c.974 1.672.396 3.81-1.293 4.776-1.688.966-3.848.393-4.823-1.28-.974-1.672-.396-3.81 1.293-4.776 1.688-.965 3.848-.392 4.823 1.28zm-3.815.45c-.723.414-.971 1.33-.553 2.048.417.716 1.343.962 2.067.548.723-.414.971-1.33.553-2.047-.417-.717-1.343-.962-2.067-.548zm26.527-13.436c.975 1.672.397 3.81-1.292 4.776-1.688.965-3.848.392-4.823-1.28-.974-1.672-.396-3.81 1.293-4.776 1.688-.966 3.848-.393 4.822 1.28zm-3.814.45c-.723.414-.971 1.33-.553 2.047.417.717 1.343.962 2.067.548.723-.413.971-1.33.553-2.047-.417-.716-1.343-.962-2.067-.548z"/>
            <g fill-rule="nonzero">
                <path fill="#464646" d="M53 0H7C3.134 0 0 3.134 0 7v108c0 3.866 3.134 7 7 7h46c3.866 0 7-3.134 7-7V7c0-3.866-3.134-7-7-7z" transform="translate(47 15)"/>
                <path fill="#FFF" d="M7 2h46c2.761 0 5 2.239 5 5v108c0 2.761-2.239 5-5 5H7c-2.761 0-5-2.239-5-5V7c0-2.761 2.239-5 5-5z" transform="translate(47 15)"/>
            </g>
            <circle cx="56.5" cy="15.5" r="15.5" fill="#FFF361"/>
            <path fill="#FF7FB1" d="M91 88H131V126H91z"/>
            <path fill="#464646" d="M101.92 100v2H96.94v-2h4.979zm8.168-3.025l.873 1.798-4.475 2.192-.873-1.798 4.475-2.192zm-21.315 0l4.475 2.192-.873 1.798-4.475-2.192.873-1.798zm27.41-6.266l1.547 1.259-3.133 3.886-1.548-1.259 3.133-3.886zm-33.504 0l3.133 3.886-1.548 1.259-3.133-3.886 1.548-1.259zm36.242-8.308l1.94.45-1.12 4.872-1.94-.45 1.12-4.872zm-38.98 0l1.12 4.872-1.941.45L78 82.85l1.94-.45zM126 69l-5.623 11.579-11.53-5.648L126 69zm-46.88 4.277l1.94.45-1.12 4.872-1.94-.45 1.12-4.872zm35.477-8.13l3.133 3.885-1.548 1.259-3.133-3.886 1.548-1.259zm-30.333 0l1.548 1.258-3.133 3.886-1.548-1.259 3.133-3.886zm22.222-5.112l4.475 2.192-.873 1.798-4.475-2.192.873-1.798zm-14.111 0l.873 1.798-4.475 2.192-.873-1.798 4.475-2.192zM101.92 59v2H96.94v-2h4.979z"/>
        </g>
    </g>
</svg>
