<svg xmlns="http://www.w3.org/2000/svg" width="144" height="144" viewBox="0 0 144 144">
    <g fill="none" fill-rule="evenodd">
        <g>
            <path fill="#464646" fill-rule="nonzero" d="M109.704 17.003c.514-.038.971.328 1.05.84.174 1.117.262 2.253.262 3.4 0 11.53-8.899 21.053-20.264 21.785-.512.033-.964-.331-1.043-.84-.174-1.117-.262-2.253-.262-3.4 0-11.516 8.878-21.033 20.221-21.783zm-.79 2.069l-.132.015c-9.813 1.165-17.352 9.583-17.352 19.7 0 .627.029 1.25.086 1.867l.032.304.101-.01c9.715-1.138 17.21-9.383 17.38-19.357l.004-.348c0-.626-.029-1.249-.086-1.866l-.033-.305zm.224 21.965c7.92.047 14.565 2.635 18.984 9.65.305.485.14 1.128-.36 1.405-6.25 3.463-10.217 10.079-10.217 17.399 0 7.981 4.719 15.089 11.859 18.21.466.204.704.73.549 1.216-4.63 14.559-15.361 27.083-21.424 27.083-1.704 0-3.395-.309-5.39-.917l-.501-.155c-.157-.05-.309-.1-.473-.154l-.26-.088-2.743-.974-.848-.296c-2.725-.936-4.496-1.37-6.536-1.52l-.25-.017-.237.016c-1.926.141-3.61.533-6.078 1.36l-.473.16-.849.297-.891.318v-2.115l.262-.093c3.363-1.19 5.417-1.732 7.87-1.912l.337-.023h.117c2.502.149 4.522.648 7.79 1.79l.882.312 2.049.73.597.202.812.256c1.822.556 3.33.831 4.813.831 1.947 0 5.624-2.578 9.228-6.784 3.864-4.51 7.255-10.324 9.592-16.807l.246-.697.194-.575-.247-.121c-7.02-3.537-11.67-10.674-11.965-18.719l-.012-.41-.003-.404c0-7.497 3.783-14.324 9.856-18.306l.456-.291-.112-.161c-3.821-5.348-9.272-7.49-15.812-7.688l-.419-.01-.404-.006c-2.36-.013-4.125.362-6.717 1.334l-.466.178-.844.335-1.17.473-.935.367c-2.859 1.093-4.778 1.557-7.519 1.69-2.812-.141-4.785-.653-7.936-1.891L83 45.3v-2.148l1.236.498c2.82 1.11 4.578 1.587 6.855 1.743l.385.023c2.561-.128 4.362-.595 7.34-1.766l.843-.337 1.158-.468c3.303-1.308 5.405-1.823 8.321-1.808z" transform="translate(7 7)"/>
            <g fill-rule="nonzero">
                <path fill="#464646" d="M53 0c3.785 0 6.87 3.005 6.996 6.76L60 7v108c0 3.785-3.005 6.87-6.76 6.996L53 122h-3.355C51.14 119.518 52 116.609 52 113.5c0-9.113-7.387-16.5-16.5-16.5S19 104.387 19 113.5c0 3.11.86 6.018 2.355 8.5H7c-3.785 0-6.87-3.005-6.996-6.76L0 115V74h17V36H0V7C0 3.215 3.005.13 6.76.004L7 0h46zM16.023 51v2h-5v-2h5zM2.82 47.975l4.494 2.192-.877 1.798-4.494-2.192.877-1.798z" transform="translate(7 7) translate(23)"/>
                <path fill="#FFF" d="M53 2c2.761 0 5 2.239 5 5v108c0 2.761-2.239 5.001-5 5.001h-2.33c.856-1.995 1.33-4.193 1.33-6.501 0-9.113-7.387-16.5-16.5-16.5S19 104.387 19 113.5c0 2.308.474 4.506 1.33 6.501H7c-2.761 0-5-2.24-5-5.001V74h15V36H2V7c0-2.761 2.239-5 5-5h46zM16.023 51v2h-5v-2h5zM2.82 47.975l4.494 2.192-.877 1.798L2 49.8v-.145l.82-1.68z" transform="translate(7 7) translate(23)"/>
            </g>
            <path fill="#FFF361" d="M40 36v38H0V36h15.495l.63 2.723 1.948-.45L17.548 36H40zm-.977 15h-5v2h5v-2zM25.82 47.975l-.877 1.798 4.494 2.192.877-1.798-4.494-2.192zM19.7 41.71l-1.555 1.259 3.146 3.886 1.555-1.259-3.147-3.886z" transform="translate(7 7)"/>
            <path fill="#001CFF" fill-rule="nonzero" d="M58.5 97c-9.113 0-16.5 7.387-16.5 16.5S49.387 130 58.5 130 75 122.613 75 113.5 67.613 97 58.5 97z" transform="translate(7 7)"/>
            <path fill="#464646" fill-rule="nonzero" d="M39.202 51v2h-5.038v-2h5.038zm8.264-3.025l.883 1.798-4.527 2.192-.883-1.798 4.527-2.192zm-21.566 0l4.528 2.192-.884 1.798-4.527-2.192.883-1.798zm27.732-6.266l1.566 1.259-3.17 3.886-1.566-1.259 3.17-3.886zm-33.898 0l3.17 3.886-1.566 1.259-3.17-3.886 1.566-1.259zm36.669-8.308l1.963.45-1.133 4.872-1.963-.45 1.133-4.872zm-39.44 0l1.133 4.872-1.963.45L15 33.85l1.963-.45zM63 19.52l-4.862 11.944-12.034-4.826L63 19.52zm-46.867 4.756l1.963.45-1.133 4.872L15 29.15l1.133-4.872zm35.895-8.13l3.17 3.885-1.566 1.259-3.17-3.886 1.566-1.259zm-30.69 0l1.566 1.258-3.17 3.886-1.566-1.259 3.17-3.886zm22.484-5.112l4.527 2.192-.883 1.798-4.527-2.192.883-1.798zm-14.278 0l.884 1.798-4.528 2.192-.883-1.798 4.527-2.192zM39.202 10v2h-5.038v-2h5.038z" transform="translate(7 7)"/>
        </g>
    </g>
</svg>
