<svg xmlns="http://www.w3.org/2000/svg" width="144" height="144" viewBox="0 0 144 144">
    <g fill="none" fill-rule="evenodd">
        <g>
            <path fill="#464646" fill-rule="nonzero" d="M118 0c.513 0 .936.386.993.883L119 1v31.987l-1.315-1.065-.685.844V2H2v90h55.766l-.844.685L57.987 94H1c-.513 0-.936-.386-.993-.883L0 93V1C0 .487.386.064.883.007L1 0h117zm-1 33.941l2 1.619V93c0 .513-.386.936-.883.993L118 94H60.56l-1.619-2H117V33.941z" transform="translate(0 7)"/>
            <path fill="#FFF" fill-rule="nonzero" d="M117 2L117 92 2 92 2 2z" transform="translate(0 7)"/>
            <path fill="#FF7FB1" d="M10 13c-2.21 0-4-1.79-4-4s1.79-4 4-4 4 1.79 4 4-1.79 4-4 4z" transform="translate(0 7)"/>
            <path fill="#001CFF" fill-rule="nonzero" d="M22 5c-2.21 0-4 1.79-4 4s1.79 4 4 4 4-1.79 4-4-1.79-4-4-4z" transform="translate(0 7)"/>
            <path fill="#464646" fill-rule="nonzero" d="M34 5c-2.21 0-4 1.79-4 4s1.79 4 4 4 4-1.79 4-4-1.79-4-4-4zm0 2c1.105 0 2 .895 2 2s-.895 2-2 2-2-.895-2-2 .895-2 2-2z" transform="translate(0 7)"/>
            <path fill="#464646" d="M104.168 106.943l.45 1.938L99.746 110l-.45-1.938 4.872-1.119zm8.58-3.581l.877 1.787-4.494 2.18-.876-1.787 4.494-2.18zm-40.497 0l4.494 2.18-.876 1.787-4.494-2.18.876-1.787zm48.06-5.39l1.26 1.546-3.886 3.13-1.259-1.546 3.886-3.13zm-55.623 0l3.886 3.13-1.259 1.545-3.886-3.13 1.26-1.545zm61.836-6.913l1.554 1.252-3.146 3.864-1.555-1.252 3.147-3.864zm-68.048 0l3.147 3.864-1.555 1.252-3.146-3.864 1.554-1.252zm72.512-8.127l1.798.872-2.192 4.47-1.798-.873 2.192-4.47zm-76.976 0l2.192 4.47-1.798.871-2.192-4.47 1.798-.871zm79.51-8.91l1.95.448-1.126 4.845-1.948-.447 1.124-4.846zm-82.044 0l1.124 4.846-1.948.447-1.125-4.845 1.949-.448zM136 64.777v4.972h-2v-4.972h2zm-85 0v4.972h-2v-4.972h2zm-.346-9.566l1.948.447-1.124 4.846-1.95-.448 1.126-4.845zm74.278-16.86l3.146 3.864-1.554 1.252-3.147-3.864 1.555-1.252zm-7.247-6.472l3.886 3.129-1.26 1.546-3.885-3.13 1.259-1.545zm-50.37 0l1.259 1.545-3.886 3.13-1.259-1.546 3.886-3.13zm41.816-4.682l4.494 2.18-.876 1.787-4.494-2.18.876-1.787zm-33.262 0l.876 1.787-4.494 2.18-.876-1.788 4.494-2.18zm23.877-2.671l4.872 1.119-.45 1.938-4.872-1.119.45-1.938zm-14.492 0l.45 1.938-4.872 1.119-.45-1.938 4.872-1.12zM95 24v1.99h-5V24h5z" transform="translate(0 7)"/>
            <path fill="#FFF361" d="M57.376 36.13L73.842 52.596 40.91 52.596z" transform="translate(0 7) rotate(30 57.376 44.363)"/>
            <path fill="#FF7FB1" d="M132.374 45.779L148.84 62.245 115.908 62.245z" transform="translate(0 7) rotate(157 132.374 54.012)"/>
            <path fill="#001CFF" fill-rule="nonzero" d="M101 98L78 107.208 87.293 130z" transform="translate(0 7)"/>
        </g>
    </g>
</svg>
