<svg xmlns="http://www.w3.org/2000/svg" width="315" height="341" viewBox="0 0 315 341">
    <g fill="none" fill-rule="evenodd">
        <path fill="#464646" fill-rule="nonzero" d="M255 52c.513 0 .936.386.993.884L256 53v243c0 .513-.386.935-.883.993L255 297h-37.829l-22.818-13.182c-7.793-4.502-17.73-1.92-22.364 5.748l-.173.294c-1.305 2.26-2.014 4.7-2.177 7.14H46.001c-.513 0-.936-.386-.993-.884L45 296V83.083l9.687 9.693.183.176c2.29 2.108 5.822 2.11 8.113.005l.189-.18L103.925 52H255z"/>
        <path fill="#FFF361" d="M107.757 48.592L63.592 92.757c-2.343 2.344-6.142 2.344-8.485 0L16.243 53.893c-2.344-2.343-2.343-6.142 0-8.486L60.408 1.243c2.343-2.343 6.142-2.343 8.485 0l38.864 38.864c2.344 2.343 2.344 6.142 0 8.485z"/>
        <path fill="#FFF" fill-rule="nonzero" d="M254 54v241h-40.712l-19.354-11.18c-7.792-4.502-17.729-1.92-22.363 5.748l-.174.294c-.947 1.64-1.58 3.376-1.918 5.138H47V85.085l7.688 7.692.183.176c2.29 2.108 5.821 2.11 8.113.004l.188-.18L101.928 54H254z"/>
        <path fill="#F94B4B" d="M261 261H315V309H261z"/>
        <path fill="#464646" fill-rule="nonzero" d="M234 125h-2v-5h2v5zm0 10h-2v-5h2v5zm0 10h-2v-5h2v5zm0 10h-2v-5h2v5zm0 10h-2v-5h2v5zm0 10h-2v-5h2v5zm-10 2v-2h5v2h-5zm-10 0v-2h5v2h-5zm-10 0v-2h5v2h-5zm-9 0v-2h5v2h-5zm-10 0v-2h5v2h-5zm-10 0v-2h5v2h-5zm-10 0v-2h5v2h-5zm-10 0v-2h5v2h-5zm-9 0v-2h5v2h-5zm-10 0v-2h5v2h-5zm-10 0v-2h5v2h-5zm-10 0v-2h5v2h-5zm-10 0v-2h5v2h-5zm-10 0v-2h5v2h-5zm-9 0v-2h5v2h-5zm-20-12h2v5h-2v-5zm0-10h2v5h-2v-5zm0-10h2v5h-2v-5zm0-10h2v5h-2v-5zm0-10h2v5h-2v-5zm6-6v2h-5v-2h5zm10 0v2h-5v-2h5zm10 0v2h-5v-2h5zm9 0v2h-5v-2h5zm10 0v2h-5v-2h5zm10 0v2h-5v-2h5zm10 0v2h-5v-2h5zm10 0v2h-5v-2h5zm10 0v2h-5v-2h5zm9 0v2h-5v-2h5zm10 0v2h-5v-2h5zm10 0v2h-5v-2h5zm10 0v2h-5v-2h5zm10 0v2h-5v-2h5zm9 0v2h-5v-2h5zm10 0v2h-5v-2h5zm10 0v2h-5v-2h5zM69 296v-5h-2v5h2zm0-10v-5h-2v5h2zm1-7h5v-2h-5v2zm10 0h5v-2h-5v2zm10 0h5v-2h-5v2zm10 0h5v-2h-5v2zm9 0h5v-2h-5v2zm10 0h5v-2h-5v2zm10 0h5v-2h-5v2zm10 0h5v-2h-5v2zm10 0h5v-2h-5v2zm10 0h5v-2h-5v2zm10 0h5v-2h-5v2zm10 0h5v-2h-5v2zm10 0h5v-2h-5v2zm9 0h5v-2h-5v2zm10 0h5v-2h-5v2zm10 0h5v-2h-5v2zm10 0h5v-2h-5v2zm5 3v5h2v-5h-2zm0 10v4h2v-4h-2z"/>
        <path fill="#FF7FB1" fill-rule="nonzero" d="M165 294H252V327H165z" transform="rotate(30 208.5 310.5)"/>
        <path fill="#001CFF" d="M221 202c-2.21 0-4-1.79-4-4s1.79-4 4-4 4 1.79 4 4-1.79 4-4 4zM221 248c-2.21 0-4-1.79-4-4s1.79-4 4-4 4 1.79 4 4-1.79 4-4 4z"/>
        <path fill="#FF7FB1" d="M221 137c-2.21 0-4-1.79-4-4s1.79-4 4-4 4 1.79 4 4-1.79 4-4 4z"/>
        <path fill="#FFF361" d="M221 293c-2.21 0-4-1.79-4-4s1.79-4 4-4 4 1.79 4 4-1.79 4-4 4z"/>
        <path fill="#464646" d="M258 97v2h-5v-2h5zm8.445-1.314l.381 1.964-4.908.954-.381-1.964 4.908-.954zm-21.89 0l4.908.954-.381 1.964-4.908-.954.381-1.964zm-7.995-2.97l4.603 1.953-.782 1.841-4.602-1.954.781-1.84zm37.913.033l.749 1.854-4.636 1.873-.75-1.854 4.637-1.873zm7.263-4.476l1.119 1.658-4.146 2.796-1.118-1.658 4.145-2.796zm-52.472 0l4.145 2.796-1.118 1.658-4.146-2.796 1.119-1.658zm58.763-5.782l1.414 1.415-3.535 3.535-1.415-1.414 3.536-3.536zm-65.054 0l3.536 3.536-1.415 1.414-3.535-3.535 1.414-1.415zm70.096-6.9l1.658 1.118-2.796 4.146-1.658-1.119 2.796-4.145zm-75.138 0l2.796 4.145-1.658 1.119-2.796-4.146 1.658-1.118zm78.738-7.754l1.841.782-1.954 4.602-1.84-.781 1.953-4.603zm-82.338 0l1.954 4.603-1.841.781-1.954-4.602 1.841-.782zm84.31-8.3l1.963.381-.954 4.908-1.964-.381.954-4.908zm-86.281 0l.954 4.908-1.964.381-.954-4.908 1.964-.381zM301 51v5h-2v-5h2zm-89 0v5h-2v-5h2zm87.65-8.826l.954 4.908-1.964.381-.954-4.908 1.964-.381zm-88.3 0l1.964.381-.954 4.908-1.964-.381.954-4.908zm85.253-8.396l1.873 4.636-1.854.75-1.873-4.637 1.854-.749zm-82.16 0l1.842.782-1.954 4.603-1.841-.782 1.954-4.602zm77.488-7.633l2.796 4.146-1.658 1.118-2.796-4.145 1.658-1.119zm-72.862 0l1.658 1.119-2.796 4.145-1.658-1.118 2.796-4.146zm66.837-6.586l3.535 3.535-1.414 1.415-3.536-3.536 1.415-1.414zm-60.812 0l1.415 1.414-3.536 3.536-1.414-1.415 3.535-3.535zm53.615-5.286l4.146 2.796-1.119 1.658-4.145-2.796 1.118-1.658zm-46.418 0l1.118 1.658-4.145 2.796-1.119-1.658 4.146-2.796zm38.328-3.783l4.602 1.954-.781 1.84-4.603-1.953.782-1.841zm-30.205.034l.75 1.854-4.637 1.873-.749-1.854 4.636-1.873zm21.504-2.128l4.908.954-.381 1.964-4.908-.954.381-1.964zm-12.836 0l.381 1.964-4.908.954-.381-1.964 4.908-.954zM258 8v2h-5V8h5z"/>
        <path fill="#464646" fill-rule="nonzero" d="M67 258h2v5h-2v-5zm166 0h2v5h-2v-5zM67 248h2v5h-2v-5zm166 0h2v5h-2v-5zM67 238h2v5h-2v-5zm166 0h2v5h-2v-5zm-160-6v2h-5v-2h5zm0 34v2h-5v-2h5zm10-34v2h-5v-2h5zm0 34v2h-5v-2h5zm10-34v2h-5v-2h5zm0 34v2h-5v-2h5zm10-34v2h-5v-2h5zm0 34v2h-5v-2h5zm10-34v2h-5v-2h5zm0 34v2h-5v-2h5zm10-34v2h-5v-2h5zm0 34v2h-5v-2h5zm10-34v2h-5v-2h5zm0 34v2h-5v-2h5zm10-34v2h-5v-2h5zm0 34v2h-5v-2h5zm10-34v2h-5v-2h5zm0 34v2h-5v-2h5zm10-34v2h-5v-2h5zm0 34v2h-5v-2h5zm10-34v2h-5v-2h5zm0 34v2h-5v-2h5zm10-34v2h-5v-2h5zm0 34v2h-5v-2h5zm10-34v2h-5v-2h5zm0 34v2h-5v-2h5zm10-34v2h-5v-2h5zm0 34v2h-5v-2h5zm10-34v2h-5v-2h5zm0 34v2h-5v-2h5zm10-34v2h-5v-2h5zm0 34v2h-5v-2h5zm10-34v2h-5v-2h5zm0 34v2h-5v-2h5zM67 212h2v5h-2v-5zm166 0h2v5h-2v-5zM67 202h2v5h-2v-5zm166 0h2v5h-2v-5zM67 192h2v5h-2v-5zm166 0h2v5h-2v-5zm-160-6v2h-5v-2h5zm0 34v2h-5v-2h5zm10-34v2h-5v-2h5zm0 34v2h-5v-2h5zm10-34v2h-5v-2h5zm0 34v2h-5v-2h5zm10-34v2h-5v-2h5zm0 34v2h-5v-2h5zm10-34v2h-5v-2h5zm0 34v2h-5v-2h5zm10-34v2h-5v-2h5zm0 34v2h-5v-2h5zm10-34v2h-5v-2h5zm0 34v2h-5v-2h5zm10-34v2h-5v-2h5zm0 34v2h-5v-2h5zm10-34v2h-5v-2h5zm0 34v2h-5v-2h5zm10-34v2h-5v-2h5zm0 34v2h-5v-2h5zm10-34v2h-5v-2h5zm0 34v2h-5v-2h5zm10-34v2h-5v-2h5zm0 34v2h-5v-2h5zm10-34v2h-5v-2h5zm0 34v2h-5v-2h5zm10-34v2h-5v-2h5zm0 34v2h-5v-2h5zm10-34v2h-5v-2h5zm0 34v2h-5v-2h5zm10-34v2h-5v-2h5zm0 34v2h-5v-2h5zm10-34v2h-5v-2h5zm0 34v2h-5v-2h5z"/>
        <g>
            <path fill="#F94B4B" d="M7.65 149l.06.086c.634 3.077 2.66 6.269 5.355 7.92l.282.166L15 176l-8.14-16.223-2.113 1.514L0 154.481 7.65 149zM38.249 169.32L55 178l-19.14-2.487V178H27v-8.24c3.465 3.024 8.359 2.62 11.249-.44z" transform="translate(0 125)"/>
            <path fill="#464646" fill-rule="nonzero" d="M11.605 84.77c-.032.54-.017 1.121.062 1.76.104.839.322 1.72.932 2.296.444.418 1.04.621 1.617.806 8.195 2.63 17.564 3.958 26.16 3.92 1.014-.004 2.087-.045 2.942-.597.926-.599 1.48-1.656 1.702-2.79.319.506.51 1.138.7 2.037.234 1.106.46 2.218.678 3.336 1.76 9.047 2.933 18.211 3.508 27.412l.046.807c.14 2.85-.009 4.55-.73 6.334-.797 1.97-1.958 3.322-4.356 5.356l-.32.27-1.715 1.414-1.156.966c-1.273 1.072-2.538 2.166-4.065 3.513l-.582.515c.046 1.575.166 2.927.374 4.017.106.552.224 1.122.357 1.713l.24 1.037.22.896c.19.76.402 1.556.642 2.428l1.842 6.568c.879 3.176 1.007 3.866.96 4.571l-.01.122-.107.932c-1.3 9.94-13.92 11.662-18.144 1.991-.731-1.673-1.13-5.517-1.283-11.269-3.97 3.186-6.63 4.395-9.263 2.912-3.666-2.064-6.356-6.777-6.356-10.92 0-4.147 3.165-8.428 9.14-12.487 2.078-1.412 3.62-1.983 6.679-2.685l.03-1.148.021-1.48-.003-.13c-.046-1.102-.683-3.103-2.88-8.844l-.722-1.878-4.075-10.468c-3.204-8.32-4.69-12.808-4.84-15.197l-.008-.135-.005-.253c0-3.456.436-5.646 1.614-7.424l.154-.224z" transform="translate(0 125)"/>
            <path fill="#FFF" fill-rule="nonzero" d="M12.192 88.31c.111.19.246.363.407.516.444.418 1.04.621 1.617.806 7.133 2.29 15.156 3.592 22.785 3.866l-.016.535-.01.279-1.535 32.605-.16 4.011c-.05 1.422-.071 2.416-.074 3.189l-.003.358c-.003.107-.007.24-.014.406l-.081 1.774c-.088 1.982-.122 3.605-.087 5.21.04 1.807.171 3.367.417 4.652.146.764.315 1.558.51 2.39l.216.903.233.93c.163.633.34 1.294.535 2.002l1.946 6.955.334 1.248c.424 1.634.463 2.066.419 2.582l-.038.368c-.863 8.151-10.907 9.604-14.358 1.705-.841-1.925-1.215-8.355-1.191-17.825l.012-2.218.017-1.683c.024-1.99.062-4.076.113-6.345l.176-7.436c.006-.32.008-.57.008-.77l-.006-.26-.02-.283c-.15-1.588-1.018-4.097-4.16-12.186l-3.255-8.346-1.06-2.762c-2.762-7.275-4.032-11.29-4.032-13.068l.005-.677c.023-1.3.117-2.358.31-3.256l.04-.174zm10.076 45.706l-.061 2.582-.058 2.608-.037 2.018-.03 1.94c-.022 1.587-.035 3.108-.038 4.606v2.139l.024 2.68-.775.637-.574.463c-3.193 2.532-5.324 3.489-6.882 2.611-3.03-1.706-5.337-5.748-5.337-9.177 0-3.346 2.78-7.108 8.264-10.833 1.713-1.164 3.008-1.677 5.504-2.274zm21.495-41.409c.232 1.104.456 2.206.672 3.313 1.743 8.962 2.905 18.04 3.475 27.155.191 3.061.098 4.683-.543 6.267-.672 1.664-1.744 2.867-4.12 4.854l-1.724 1.422-.978.815-.847.717c-.85.722-1.717 1.472-2.679 2.316.007-.51.022-1.04.042-1.598l.132-3.059.012-.433.016-1.371.048-1.719.08-2.145c.037-.933.083-2.005.138-3.247l1.337-28.176.148-3.319c.013-.294.023-.579.029-.855.46.008.919.01 1.375.008 1.014-.004 2.087-.045 2.942-.597.16-.103.307-.22.445-.348z" transform="translate(0 125)"/>
            <path fill="#000" d="M84.732 40.77c-.09.456-.485.796-.879 1.07l-.298.204c-.298.208-.585.43-.76.735-.041.071-.076.148-.079.229-.007.233.262.404.507.4.245-.005.467-.13.682-.242 1.449-.75 3.171-1.012 4.798-.73.128.022.264.052.356.14.172.17.088.47-.101.62-.19.15-.445.19-.686.24-1.147.238-2.22.788-3.058 1.57-.103.095-.211.218-.185.353.049.253.416.214.677.104l.075-.036c1.075-.561 2.258-.933 3.474-1.09.244-.032.5-.054.73.03.23.083.425.303.391.535-.049.34-.487.46-.839.524-1.137.21-2.23.628-3.205 1.222-.325.198-.66.63-.375.88.157.138.394.098.604.033l.087-.03c.896-.314 1.807-.588 2.73-.819.293-.073.606-.141.892-.045.286.096.507.425.365.68-.092.164-.293.24-.477.301l-3.063 1.03c-.28.094-.62.283-.558.56.07.315.519.295.859.197l.09-.028c.548-.191 1.118-.329 1.697-.409.342-.047.801 0 .875.322.071.315-.3.52-.638.62l-.09.024c-1.968.488-3.88 1.17-5.697 2.035l-.768.367c-1.205.572-2.465 1.093-3.773.894-.48-.073-.946-.243-1.431-.25-.45-.004-.887.132-1.314.267l-6.286 1.988c.827-1.551.82-3.563-.156-5.043-.475-.72-1.122-1.28-1.867-1.698l-.852.138c1.39-.225 2.78-.448 4.17-.67l4.59-.723c.262-.04.534-.085.754-.227.24-.155.39-.406.536-.645 1.556-2.546 3.731-4.743 6.307-6.37.127-.081.26-.162.411-.188.48-.08.87.473.778.93z" transform="translate(0 125)"/>
            <path fill="#001CFF" d="M17.888 30l3.047.825 2.111.547c3.63.92 7.923 1.891 8.398 1.462l.032-.042s-.538-.864 2.635 3.216c2.855 3.673 4.458 8.12 5.453 12.776 2.562 1.427 5.554 2.009 8.493 1.98 3.147-.032 6.252-.732 9.26-1.652l1.864-.58c1.558-.476 3.132-.892 4.754-.94 2.272-.067 4.72.736 5.97 2.63 1.293 1.96.884 4.85-.902 6.374-1.865 1.59-4.567 1.557-7.02 1.684-6.183.319-12.255 2.172-18.434 2.111.606.941 1.229 1.871 1.869 2.789l.001 12.537c-1.004-.658-2.003-1.321-2.956-2.044.541 4.384 1.273 8.785 2.52 13.98.434 1.802-.045 4.255-1.665 5.302-.855.552-1.928.593-2.942.597-8.596.038-17.965-1.29-26.16-3.92-.578-.185-1.173-.388-1.617-.806-.61-.576-.828-1.457-.932-2.295-.575-4.637 2.216-6.234 2.11-10.905-.11-4.79-2.423-9.198-3.9-13.75-2.264-6.97-2.545-14.61-.486-21.666l.2-.67c.731-2.405 1.499-4.204 3.51-5.908 1.945-1.646 3.232-1.308 4.787-3.632z" transform="translate(0 125)"/>
            <path fill="#000" d="M31.227 5.819l.01.006c.969.693 1.821 1.577 2.494 2.645l.152.25.574.977 1.817 3.012c.722 1.197.88 3.869.586 6.456-.38 3.345-3.551 5.726-7.008 5.305l-.031.025-.127 4.512.005.02 1.632 3.865c-1.512.476-13.439-2.899-13.443-2.892 1.652-1.934 2.546-3.668 2.735-6.104l.022-.352-.01-.039-.979-1.54c.037-.01.072-.024.107-.039.207-.089.362-.25.467-.448.188-.356.216-.833.097-1.232-.185-.623-.62-1.124-.968-1.665-.846-1.313-1.205-2.959-.987-4.524.071-.511.24-1.068.671-1.32.255-.149.56-.165.851-.148 1.735.099 3.362 1.339 3.98 3.032l.137.377c.147.38.338.74.701.835.592.154 1.064-.56 1.143-1.19.105-.832-.116-1.668-.149-2.506-.033-.838.196-1.79.9-2.195.35-.201.797-.255 1.051-.577.338-.428.148-1.073-.113-1.556l-.162-.293c-.215-.397-.41-.813-.329-1.248.095-.495.529-.842.971-1.046.98-.453 2.094-.439 3.203-.403z" transform="translate(0 125)"/>
            <path fill="#FF7FB1" d="M20.23 21.478c.188-.356.216-.833.097-1.232-.185-.623-.62-1.124-.968-1.665-.846-1.313-1.205-2.959-.987-4.524.071-.511.24-1.068.671-1.32.255-.149.56-.165.851-.148 1.735.099 3.362 1.339 3.98 3.032.176.487.354 1.086.838 1.212.592.154 1.064-.56 1.143-1.19.105-.832-.116-1.668-.149-2.506-.033-.838.196-1.79.9-2.195.35-.201.797-.255 1.051-.577.338-.428.148-1.073-.113-1.556-.262-.482-.593-.998-.49-1.541.094-.495.528-.842.97-1.046 2.257-1.044 5.227.394 7.204-1.148.671-.524 1.082-1.642.479-2.25-.213-.213-.505-.312-.787-.406l-1.35-.446C31.31 1.226 29.039.477 26.69.157c-2.348-.32-4.801-.19-6.982.772-4.505 1.99-5.817 7.04-5.701 11.764.054 2.22.636 4.49 1.994 6.2.527.662 1.157 1.228 1.7 1.877.276.329.534.684.876.936.343.252.799.387 1.186.22.207-.089.362-.25.467-.448z" transform="translate(0 125)"/>
        </g>
    </g>
</svg>
