<?xml version="1.0" encoding="UTF-8"?>
<svg width="315px" height="341px" viewBox="0 0 315 341" version="1.1" xmlns="http://www.w3.org/2000/svg" xmlns:xlink="http://www.w3.org/1999/xlink">
    <title>graphic/webTool</title>
    <g id="graphic/webTool" stroke="none" stroke-width="1" fill="none" fill-rule="evenodd">
        <path d="M255.000097,52 C255.512883,52 255.935513,52.3862185 255.993273,52.8837868 L256,53.0004618 L256,295.999538 C256,296.512611 255.613997,296.935477 255.116707,296.993269 L255.000097,297 L217.171313,297 L194.352839,283.81759 C186.560414,279.316118 176.623425,281.897831 171.98903,289.566156 L171.815604,289.859799 C170.511475,292.119878 169.802191,294.560258 169.639146,297 L46.0008294,297 C45.4880433,297 45.0654129,296.613782 45.0076534,296.116213 L45,295.999538 L45,83.0833484 L54.6870785,92.7761669 L54.8701251,92.9518987 C57.1602272,95.0603167 60.6915509,95.0618564 62.9834528,92.9565051 L63.1715224,92.7761821 L103.925289,52 L255.000097,52 Z" id="Path" fill="#464646" fill-rule="nonzero"></path>
        <path d="M107.757359,48.5922836 L63.5922836,92.7573593 C61.3092332,95.0404392 57.6440259,95.0989797 55.2900817,92.9329949 L55.1070173,92.7573442 L55.1070173,92.7573442 L16.2426255,53.8926748 C13.8994903,51.5495197 13.8995032,47.750531 16.2426543,45.4073919 L60.4077028,1.24262706 C62.7508644,-1.10049222 66.5498438,-1.10048612 68.8929978,1.24264069 L107.757359,40.1070022 C110.100505,42.4501479 110.100505,46.2491378 107.757359,48.5922836 Z" id="Stroke-7" fill="#FFF361"></path>
        <path d="M254,54 L254,295 L213.288357,295 L193.934326,283.819371 C186.141925,279.317879 176.204968,281.899604 171.570587,289.567961 L171.397162,289.861606 C170.450346,291.502468 169.817071,293.238368 169.478738,295 L47,295 L47,85.085484 L54.6879654,92.7771204 L54.8710114,92.952853 C57.1611063,95.0612801 60.6924188,95.0628198 62.9843134,92.9574593 L63.1723824,92.7771355 L101.927503,54 L254,54 Z" id="Path" fill="#FFFFFF" fill-rule="nonzero"></path>
        <rect id="Rectangle" fill="#F94B4B" x="261" y="261" width="54" height="48"></rect>
        <path d="M234,125 L232,125 L232,120 L234,120 L234,125 Z M234,135 L232,135 L232,130 L234,130 L234,135 Z M234,145 L232,145 L232,140 L234,140 L234,145 Z M234,155 L232,155 L232,150 L234,150 L234,155 Z M234,165 L232,165 L232,160 L234,160 L234,165 Z M234,175 L232,175 L232,170 L234,170 L234,175 Z M224,177 L224,175 L229,175 L229,177 L224,177 Z M214,177 L214,175 L219,175 L219,177 L214,177 Z M204,177 L204,175 L209,175 L209,177 L204,177 Z M195,177 L195,175 L200,175 L200,177 L195,177 Z M185,177 L185,175 L190,175 L190,177 L185,177 Z M175,177 L175,175 L180,175 L180,177 L175,177 Z M165,177 L165,175 L170,175 L170,177 L165,177 Z M155,177 L155,175 L160,175 L160,177 L155,177 Z M146,177 L146,175 L151,175 L151,177 L146,177 Z M136,177 L136,175 L141,175 L141,177 L136,177 Z M126,177 L126,175 L131,175 L131,177 L126,177 Z M116,177 L116,175 L121,175 L121,177 L116,177 Z M106,177 L106,175 L111,175 L111,177 L106,177 Z M96,177 L96,175 L101,175 L101,177 L96,177 Z M87,177 L87,175 L92,175 L92,177 L87,177 Z M67,165 L69,165 L69,170 L67,170 L67,165 Z M67,155 L69,155 L69,160 L67,160 L67,155 Z M67,145 L69,145 L69,150 L67,150 L67,145 Z M67,135 L69,135 L69,140 L67,140 L67,135 Z M67,125 L69,125 L69,130 L67,130 L67,125 Z M73,119 L73,121 L68,121 L68,119 L73,119 Z M83,119 L83,121 L78,121 L78,119 L83,119 Z M93,119 L93,121 L88,121 L88,119 L93,119 Z M102,119 L102,121 L97,121 L97,119 L102,119 Z M112,119 L112,121 L107,121 L107,119 L112,119 Z M122,119 L122,121 L117,121 L117,119 L122,119 Z M132,119 L132,121 L127,121 L127,119 L132,119 Z M142,119 L142,121 L137,121 L137,119 L142,119 Z M152,119 L152,121 L147,121 L147,119 L152,119 Z M161,119 L161,121 L156,121 L156,119 L161,119 Z M171,119 L171,121 L166,121 L166,119 L171,119 Z M181,119 L181,121 L176,121 L176,119 L181,119 Z M191,119 L191,121 L186,121 L186,119 L191,119 Z M201,119 L201,121 L196,121 L196,119 L201,119 Z M210,119 L210,121 L205,121 L205,119 L210,119 Z M220,119 L220,121 L215,121 L215,119 L220,119 Z M230,119 L230,121 L225,121 L225,119 L230,119 Z" id="Rectangle-10" fill="#464646" fill-rule="nonzero"></path>
        <path d="M69,296 L69,291 L67,291 L67,296 L69,296 Z M69,286 L69,281 L67,281 L67,286 L69,286 Z M70,279 L75,279 L75,277 L70,277 L70,279 Z M80,279 L85,279 L85,277 L80,277 L80,279 Z M90,279 L95,279 L95,277 L90,277 L90,279 Z M100,279 L105,279 L105,277 L100,277 L100,279 Z M109,279 L114,279 L114,277 L109,277 L109,279 Z M119,279 L124,279 L124,277 L119,277 L119,279 Z M129,279 L134,279 L134,277 L129,277 L129,279 Z M139,279 L144,279 L144,277 L139,277 L139,279 Z M149,279 L154,279 L154,277 L149,277 L149,279 Z M159,279 L164,279 L164,277 L159,277 L159,279 Z M169,279 L174,279 L174,277 L169,277 L169,279 Z M179,279 L184,279 L184,277 L179,277 L179,279 Z M189,279 L194,279 L194,277 L189,277 L189,279 Z M198,279 L203,279 L203,277 L198,277 L198,279 Z M208,279 L213,279 L213,277 L208,277 L208,279 Z M218,279 L223,279 L223,277 L218,277 L218,279 Z M228,279 L233,279 L233,277 L228,277 L228,279 Z M233,282 L233,287 L235,287 L235,282 L233,282 Z M233,292 L233,296 L235,296 L235,292 L233,292 Z" id="Path" fill="#464646" fill-rule="nonzero"></path>
        <path d="M193.367314,282.710581 L240.132686,309.710581 C248.024514,314.26693 250.728454,324.358172 246.172105,332.25 C241.615756,340.141828 231.524514,342.845768 223.632686,338.289419 L176.867314,311.289419 C168.975486,306.73307 166.271546,296.641828 170.827895,288.75 C175.384244,280.858172 185.475486,278.154232 193.367314,282.710581 Z" id="Rectangle" fill="#FF7FB1" fill-rule="nonzero"></path>
        <path d="M221,202 C218.790797,202 217,200.209143 217,198 C217,195.790857 218.790797,194 221,194 C223.209143,194 225,195.790857 225,198 C225,200.209143 223.209143,202 221,202 Z" id="BLUE-CIRCLE" fill="#001CFF"></path>
        <path d="M221,248 C218.790797,248 217,246.209143 217,244 C217,241.790857 218.790797,240 221,240 C223.209143,240 225,241.790857 225,244 C225,246.209143 223.209143,248 221,248 Z" id="BLUE-CIRCLE" fill="#001CFF"></path>
        <path d="M221,137 C218.790797,137 217,135.209143 217,133 C217,130.790857 218.790797,129 221,129 C223.209143,129 225,130.790857 225,133 C225,135.209143 223.209143,137 221,137 Z" id="PINK-CIRCLE" fill="#FF7FB1"></path>
        <path d="M221,293 C218.790797,293 217,291.209143 217,289 C217,286.790857 218.790797,285 221,285 C223.209143,285 225,286.790857 225,289 C225,291.209143 223.209143,293 221,293 Z" id="YELLOW-CIRCLE" fill="#FFF361"></path>
        <path d="M258,97 L258,99 L253,99 L253,97 L258,97 Z M266.444778,95.6862953 L266.826396,97.6495497 L261.91826,98.6035946 L261.536642,96.6403403 L266.444778,95.6862953 Z M244.555222,95.6862953 L249.463358,96.6403403 L249.08174,98.6035946 L244.173604,97.6495497 L244.555222,95.6862953 Z M236.560056,92.7153065 L241.162581,94.6689622 L240.381118,96.5099719 L235.778594,94.5563162 L236.560056,92.7153065 Z M274.472766,92.7489389 L275.221979,94.6033066 L270.58606,96.4763395 L269.836847,94.6219718 L274.472766,92.7489389 Z M281.736276,88.2733779 L282.854662,89.9314531 L278.709474,92.7274176 L277.591089,91.0693424 L281.736276,88.2733779 Z M229.263724,88.2733779 L233.408911,91.0693424 L232.290526,92.7274176 L228.145338,89.9314531 L229.263724,88.2733779 Z M288.026912,82.491378 L289.441125,83.9055916 L285.905592,87.4411255 L284.491378,86.0269119 L288.026912,82.491378 Z M222.973088,82.491378 L226.508622,86.0269119 L225.094408,87.4411255 L221.558875,83.9055916 L222.973088,82.491378 Z M293.069342,75.5910885 L294.727418,76.7094743 L291.931453,80.8546622 L290.273378,79.7362764 L293.069342,75.5910885 Z M217.930658,75.5910885 L220.726622,79.7362764 L219.068547,80.8546622 L216.272582,76.7094743 L217.930658,75.5910885 Z M296.668962,67.8374195 L298.509972,68.6188817 L296.556316,73.221406 L294.715307,72.4399437 L296.668962,67.8374195 Z M214.331038,67.8374195 L216.284693,72.4399437 L214.443684,73.221406 L212.490028,68.6188817 L214.331038,67.8374195 Z M298.64034,59.5366424 L300.603595,59.9182604 L299.64955,64.8263963 L297.686295,64.4447783 L298.64034,59.5366424 Z M212.35966,59.5366424 L213.313705,64.4447783 L211.35045,64.8263963 L210.396405,59.9182604 L212.35966,59.5366424 Z M301,51 L301,56 L299,56 L299,51 L301,51 Z M212,51 L212,56 L210,56 L210,51 L212,51 Z M299.64955,42.1736037 L300.603595,47.0817396 L298.64034,47.4633576 L297.686295,42.5552217 L299.64955,42.1736037 Z M211.35045,42.1736037 L213.313705,42.5552217 L212.35966,47.4633576 L210.396405,47.0817396 L211.35045,42.1736037 Z M296.603307,33.778021 L298.47634,38.4139403 L296.621972,39.1631535 L294.748939,34.5272342 L296.603307,33.778021 Z M214.443684,33.778594 L216.284693,34.5600563 L214.331038,39.1625805 L212.490028,38.3811183 L214.443684,33.778594 Z M291.931453,26.1453378 L294.727418,30.2905257 L293.069342,31.4089115 L290.273378,27.2637236 L291.931453,26.1453378 Z M219.068547,26.1453378 L220.726622,27.2637236 L217.930658,31.4089115 L216.272582,30.2905257 L219.068547,26.1453378 Z M285.905592,19.5588745 L289.441125,23.0944084 L288.026912,24.508622 L284.491378,20.9730881 L285.905592,19.5588745 Z M225.094408,19.5588745 L226.508622,20.9730881 L222.973088,24.508622 L221.558875,23.0944084 L225.094408,19.5588745 Z M278.709474,14.2725824 L282.854662,17.0685469 L281.736276,18.7266221 L277.591089,15.9306576 L278.709474,14.2725824 Z M232.290526,14.2725824 L233.408911,15.9306576 L229.263724,18.7266221 L228.145338,17.0685469 L232.290526,14.2725824 Z M270.618882,10.4900281 L275.221406,12.4436838 L274.439944,14.2846935 L269.837419,12.3310378 L270.618882,10.4900281 Z M240.41394,10.5236605 L241.163153,12.3780282 L236.527234,14.2510611 L235.778021,12.3966934 L240.41394,10.5236605 Z M261.91826,8.39640535 L266.826396,9.35045033 L266.444778,11.3137047 L261.536642,10.3596597 L261.91826,8.39640535 Z M249.08174,8.39640535 L249.463358,10.3596597 L244.555222,11.3137047 L244.173604,9.35045033 L249.08174,8.39640535 Z M258,8 L258,10 L253,10 L253,8 L258,8 Z" id="DASHED-CIRCLE" fill="#464646"></path>
        <path d="M67,258 L69,258 L69,263 L67,263 L67,258 Z M233,258 L235,258 L235,263 L233,263 L233,258 Z M67,248 L69,248 L69,253 L67,253 L67,248 Z M233,248 L235,248 L235,253 L233,253 L233,248 Z M67,238 L69,238 L69,243 L67,243 L67,238 Z M233,238 L235,238 L235,243 L233,243 L233,238 Z M73,232 L73,234 L68,234 L68,232 L73,232 Z M73,266 L73,268 L68,268 L68,266 L73,266 Z M83,232 L83,234 L78,234 L78,232 L83,232 Z M83,266 L83,268 L78,268 L78,266 L83,266 Z M93,232 L93,234 L88,234 L88,232 L93,232 Z M93,266 L93,268 L88,268 L88,266 L93,266 Z M103,232 L103,234 L98,234 L98,232 L103,232 Z M103,266 L103,268 L98,268 L98,266 L103,266 Z M113,232 L113,234 L108,234 L108,232 L113,232 Z M113,266 L113,268 L108,268 L108,266 L113,266 Z M123,232 L123,234 L118,234 L118,232 L123,232 Z M123,266 L123,268 L118,268 L118,266 L123,266 Z M133,232 L133,234 L128,234 L128,232 L133,232 Z M133,266 L133,268 L128,268 L128,266 L133,266 Z M143,232 L143,234 L138,234 L138,232 L143,232 Z M143,266 L143,268 L138,268 L138,266 L143,266 Z M153,232 L153,234 L148,234 L148,232 L153,232 Z M153,266 L153,268 L148,268 L148,266 L153,266 Z M163,232 L163,234 L158,234 L158,232 L163,232 Z M163,266 L163,268 L158,268 L158,266 L163,266 Z M173,232 L173,234 L168,234 L168,232 L173,232 Z M173,266 L173,268 L168,268 L168,266 L173,266 Z M183,232 L183,234 L178,234 L178,232 L183,232 Z M183,266 L183,268 L178,268 L178,266 L183,266 Z M193,232 L193,234 L188,234 L188,232 L193,232 Z M193,266 L193,268 L188,268 L188,266 L193,266 Z M203,232 L203,234 L198,234 L198,232 L203,232 Z M203,266 L203,268 L198,268 L198,266 L203,266 Z M213,232 L213,234 L208,234 L208,232 L213,232 Z M213,266 L213,268 L208,268 L208,266 L213,266 Z M223,232 L223,234 L218,234 L218,232 L223,232 Z M223,266 L223,268 L218,268 L218,266 L223,266 Z M233,232 L233,234 L228,234 L228,232 L233,232 Z M233,266 L233,268 L228,268 L228,266 L233,266 Z" id="DASHED-RECTANGLE" fill="#464646" fill-rule="nonzero"></path>
        <path d="M67,212 L69,212 L69,217 L67,217 L67,212 Z M233,212 L235,212 L235,217 L233,217 L233,212 Z M67,202 L69,202 L69,207 L67,207 L67,202 Z M233,202 L235,202 L235,207 L233,207 L233,202 Z M67,192 L69,192 L69,197 L67,197 L67,192 Z M233,192 L235,192 L235,197 L233,197 L233,192 Z M73,186 L73,188 L68,188 L68,186 L73,186 Z M73,220 L73,222 L68,222 L68,220 L73,220 Z M83,186 L83,188 L78,188 L78,186 L83,186 Z M83,220 L83,222 L78,222 L78,220 L83,220 Z M93,186 L93,188 L88,188 L88,186 L93,186 Z M93,220 L93,222 L88,222 L88,220 L93,220 Z M103,186 L103,188 L98,188 L98,186 L103,186 Z M103,220 L103,222 L98,222 L98,220 L103,220 Z M113,186 L113,188 L108,188 L108,186 L113,186 Z M113,220 L113,222 L108,222 L108,220 L113,220 Z M123,186 L123,188 L118,188 L118,186 L123,186 Z M123,220 L123,222 L118,222 L118,220 L123,220 Z M133,186 L133,188 L128,188 L128,186 L133,186 Z M133,220 L133,222 L128,222 L128,220 L133,220 Z M143,186 L143,188 L138,188 L138,186 L143,186 Z M143,220 L143,222 L138,222 L138,220 L143,220 Z M153,186 L153,188 L148,188 L148,186 L153,186 Z M153,220 L153,222 L148,222 L148,220 L153,220 Z M163,186 L163,188 L158,188 L158,186 L163,186 Z M163,220 L163,222 L158,222 L158,220 L163,220 Z M173,186 L173,188 L168,188 L168,186 L173,186 Z M173,220 L173,222 L168,222 L168,220 L173,220 Z M183,186 L183,188 L178,188 L178,186 L183,186 Z M183,220 L183,222 L178,222 L178,220 L183,220 Z M193,186 L193,188 L188,188 L188,186 L193,186 Z M193,220 L193,222 L188,222 L188,220 L193,220 Z M203,186 L203,188 L198,188 L198,186 L203,186 Z M203,220 L203,222 L198,222 L198,220 L203,220 Z M213,186 L213,188 L208,188 L208,186 L213,186 Z M213,220 L213,222 L208,222 L208,220 L213,220 Z M223,186 L223,188 L218,188 L218,186 L223,186 Z M223,220 L223,222 L218,222 L218,220 L223,220 Z M233,186 L233,188 L228,188 L228,186 L233,186 Z M233,220 L233,222 L228,222 L228,220 L233,220 Z" id="DASHED-RECTANGLE" fill="#464646" fill-rule="nonzero"></path>
        <g id="CHARACTER" transform="translate(0.000000, 125.000000)">
            <path d="M7.65057262,149 L7.70956169,149.086226 C8.34446803,152.163463 10.3697117,155.354559 13.0653753,157.006346 L13.3465991,157.171662 L15,176 L6.86073289,159.776544 L4.74668872,161.291103 L0,154.481698 L7.65057262,149 Z" id="LEFT-SHOE" fill="#F94B4B"></path>
            <path d="M38.2488749,169.320232 L55,178 L35.8606531,175.513004 L35.8606531,178 L26.9999557,178 L26.9999557,169.760918 C30.4648741,172.783535 35.3590002,172.380683 38.2488749,169.320232 Z" id="RIGHT-SHOE" fill="#F94B4B"></path>
            <path d="M11.604878,84.7698916 C11.5725118,85.3097839 11.5877351,85.8914524 11.6669796,86.5309371 C11.7708352,87.3688169 11.9887238,88.2502655 12.5993671,88.8255612 C13.0427773,89.2436813 13.6381545,89.4470024 14.2157212,89.632287 C22.4105997,92.2621099 31.7801128,93.5897875 40.3763041,93.5520747 C41.390342,93.5476241 42.4628998,93.5073347 43.3178004,92.9549946 C44.2440053,92.3564165 44.7971631,91.2987634 45.0203023,90.1658247 C45.3386543,90.6707373 45.5309413,91.3026996 45.7207638,92.2017563 C45.9544919,93.3080087 46.1801205,94.4201912 46.3977294,95.538352 C48.1578265,104.585135 49.3307566,113.749102 49.9060062,122.950242 L49.9515639,123.756818 C50.0929345,126.606338 49.9433667,128.306084 49.2216296,130.091338 C48.4254701,132.060839 47.2640535,133.412514 44.8659708,135.447315 L44.5460925,135.716705 L42.8305834,137.131421 L41.6749582,138.096686 C40.4016914,139.168765 39.1371554,140.262587 37.6099531,141.610133 L37.0283664,142.124537 C37.0735688,143.700049 37.1943053,145.052422 37.4022449,146.1415 C37.5077809,146.694242 37.626498,147.264374 37.7585514,147.854993 L37.9988201,148.891645 L38.2188337,149.787605 C38.4098031,150.54713 38.6209813,151.343911 38.8609715,152.215628 L40.7034908,158.783673 C41.5815992,161.959807 41.7099703,162.64953 41.6620543,163.355492 L41.6522203,163.477141 L41.5463447,164.408973 C40.2459728,174.348289 27.6265193,176.07076 23.4018083,166.400334 C22.6707508,164.726932 22.2727073,160.882962 22.1185903,155.131484 C18.148951,158.316599 15.4895685,159.526183 12.8558971,158.042989 C9.19027967,155.978638 6.5,151.266441 6.5,147.122792 C6.5,142.976145 9.66493487,138.694532 15.6398268,134.635564 C17.717507,133.22414 19.2593287,132.652755 22.3185441,131.950549 L22.3481606,130.802924 L22.3701801,129.323155 L22.36736,129.192527 C22.3207617,128.090639 21.6835654,126.090435 19.4871254,120.34855 L18.7650105,118.470931 L14.6899564,108.002853 C11.4857989,99.6827984 10.000394,95.1949079 9.8496193,92.8061942 L9.84240651,92.6708799 L9.83677433,92.4181721 C9.83677433,88.9624315 10.2728963,86.7715455 11.4512701,84.9942431 L11.604878,84.7698916 Z" id="PANT-OUTLINE" fill="#464646" fill-rule="nonzero"></path>
            <path d="M12.1916969,88.3106067 C12.303495,88.499398 12.4376597,88.6732144 12.5993671,88.8255612 C13.0427773,89.2436813 13.6381545,89.4470024 14.2157212,89.632287 C21.3489932,91.9214292 29.3722763,93.2239467 37.0008219,93.498127 L36.9854935,94.0329171 C36.9821348,94.1246644 36.9783895,94.2176673 36.9742806,94.3118474 L35.4399511,126.917499 L35.2799512,130.92799 C35.2307663,132.350171 35.2087827,133.343887 35.2058659,134.116663 L35.2029662,134.475417 C35.2003776,134.58247 35.1957863,134.715007 35.1890088,134.880533 L35.1076376,136.655187 C35.0201304,138.637183 34.985506,140.260129 35.021122,141.864451 C35.0612565,143.672309 35.1924398,145.231874 35.4377325,146.516588 C35.5837313,147.281252 35.7534663,148.075296 35.9472905,148.906659 L36.1635741,149.810036 L36.3974667,150.740556 C36.5600116,151.373236 36.7365364,152.033872 36.9315225,152.742183 L38.8782737,159.696738 L39.2124896,160.94544 C39.6363773,162.578682 39.6747901,163.010529 39.6310233,163.527189 L39.5933775,163.89473 C38.7304579,172.046415 28.6856541,173.499302 25.2345473,165.599666 C24.3936092,163.674746 24.0195027,157.245053 24.0436528,147.775081 L24.0557235,145.55706 L24.0728796,143.873813 C24.0969087,141.884568 24.1348887,139.79808 24.1858063,137.528871 L24.3623754,130.092641 C24.3676751,129.772328 24.3701801,129.523249 24.3701801,129.323155 L24.3642777,129.06357 L24.3442668,128.77988 C24.193711,127.192371 23.3260601,124.682988 20.1842702,116.593795 L16.9288793,108.248007 L15.8696111,105.486277 C13.1072806,98.2109626 11.8367743,94.1960225 11.8367743,92.4181721 L11.842475,91.7411658 C11.8653506,90.4409264 11.9587187,89.3832361 12.1521173,88.4850969 L12.1916969,88.3106067 Z M22.2679363,134.016352 L22.2066327,136.597578 L22.1494805,139.206037 L22.1116291,141.224167 L22.0818104,143.163206 C22.0603615,144.750571 22.0474788,146.272248 22.0436593,147.76998 L22.0447378,149.908885 L22.0677533,152.589595 L22.0677533,152.589595 L21.2929787,153.226195 L20.7185121,153.689298 C17.5262022,156.221185 15.395323,157.177759 13.8373011,156.300334 C10.8078488,154.59425 8.5,150.551905 8.5,147.122792 C8.5,143.77656 11.280728,140.014713 16.7636913,136.289931 C18.4772357,135.125874 19.7716153,134.612614 22.2679363,134.016352 Z M43.7627661,92.6073992 C43.9954757,93.7109603 44.2189827,94.8126852 44.43455,95.9203555 C46.1781163,104.882171 47.340052,113.96024 47.9099052,123.075065 C48.1013627,126.13606 48.0078748,127.757535 47.3674128,129.341751 C46.6945952,131.006135 45.6231237,132.209144 43.2464507,134.196249 L41.5225026,135.617927 L40.5453916,136.433339 L39.6979792,137.149508 C38.8478812,137.872239 37.9810276,138.622088 37.0191287,139.465958 C37.026236,138.956566 37.0408074,138.426186 37.0606203,137.867997 L37.1933628,134.809195 L37.2050572,134.375922 L37.2208065,133.004537 L37.2689888,131.286121 L37.3486848,129.140803 C37.3860414,128.208436 37.43173,127.135956 37.4869043,125.893999 L38.8240816,97.7181449 L38.9723827,94.3989573 C38.9852024,94.1051158 38.9948341,93.8203791 39.0009285,93.5442819 C39.4613657,93.5522306 39.9199248,93.5540769 40.3763041,93.5520747 C41.390342,93.5476241 42.4628998,93.5073347 43.3178004,92.9549946 C43.477082,92.8520557 43.625331,92.7355399 43.7627661,92.6073992 Z" id="PANT-FILL" fill="#FFFFFF" fill-rule="nonzero"></path>
            <path d="M84.7321216,40.7693627 C84.6411225,41.2261183 84.2470068,41.5658081 83.8534739,41.839235 L83.5550195,42.0441282 C83.2567501,42.2515186 82.9700707,42.4739364 82.7942998,42.7792054 C82.7535611,42.8500135 82.7187701,42.9266389 82.7159702,43.0076957 C82.7087927,43.2412958 82.9783158,43.412111 83.2233535,43.4075352 C83.4684033,43.4027306 83.6896912,43.2776264 83.904721,43.1664158 C85.3538523,42.4164258 87.0761146,42.1542265 88.7030556,42.4359532 C88.8312597,42.4582788 88.9670185,42.4878826 89.0585484,42.5768711 C89.2312719,42.7455891 89.1469644,43.0469407 88.9576089,43.1959713 C88.7680017,43.345218 88.5126188,43.3866414 88.2721886,43.4364192 C87.1249535,43.6744265 86.0525258,44.2244284 85.2135219,45.0055158 C85.1106382,45.1012777 85.0029962,45.2236285 85.0290854,45.35919 C85.0779268,45.6122039 85.4449119,45.5734687 85.7060826,45.462536 L85.7808354,45.4273099 C86.8555406,44.865958 88.0393491,44.4943009 89.2552476,44.3365125 C89.4988086,44.3050207 89.754133,44.2830923 89.9844648,44.3665184 C90.2145567,44.4499318 90.4096102,44.6698283 90.3760535,44.9020442 C90.3270367,45.2412617 89.8893557,45.3612048 89.5370312,45.426215 C88.3996743,45.6362963 87.3060617,46.0535174 86.3320433,46.6483675 C86.0073784,46.8464983 85.6724425,47.2776081 85.9572832,47.5279075 C86.1144063,47.6656135 86.3513021,47.6264351 86.5605359,47.5608664 L86.6482008,47.5315885 C87.5436055,47.2165969 88.4548768,46.9430397 89.3783454,46.7121007 C89.670501,46.6388867 89.9842758,46.5707068 90.2699806,46.6666727 C90.5559253,46.7626513 90.7765144,47.0919298 90.6347929,47.3462261 C90.5434371,47.5111803 90.3423256,47.5861895 90.1577721,47.6480749 L87.0946301,48.6778726 L87.0946301,48.6778726 C86.8146224,48.7716809 86.4745492,48.9609746 86.5369678,49.238599 C86.6073677,49.5528666 87.0559324,49.5330876 87.3956514,49.4351713 L87.4852376,49.4067218 C88.0341375,49.21554 88.6042525,49.0784603 89.1834124,48.9982848 C89.5247189,48.9508182 89.9841987,48.9978671 90.0575199,49.3198769 C90.1294038,49.6352737 89.7571174,49.8394696 89.4200335,49.9392429 L89.3293345,49.9638699 C87.362494,50.4515707 85.4498766,51.134574 83.6326328,51.9985232 L82.8651723,52.3661173 C81.6595908,52.9375273 80.3996325,53.4591196 79.0919526,53.2597776 C78.612195,53.1866613 78.1461595,53.0167746 77.660963,53.0108132 C77.2103591,53.0055199 76.7737345,53.1420345 76.3465702,53.2769809 L70.0611321,55.2650519 L70.0611321,55.2650519 C70.8876362,53.7138933 70.8817635,51.7024641 69.9045482,50.2217111 C69.430217,49.50286 68.7830657,48.9410939 68.0383909,48.5244261 L67.1857743,48.6617843 C68.5754345,48.4369565 69.9657183,48.2139965 71.3561582,47.9926504 L75.9456545,47.2688924 C76.2082198,47.2280753 76.4796218,47.1838223 76.7000931,47.0421592 C76.9404918,46.8873196 77.0894918,46.6363873 77.2359387,46.3974786 C78.7923157,43.851266 80.9674522,41.6536192 83.5426932,40.0263534 C83.6702784,39.9456509 83.8034033,39.8647803 83.954302,39.839437 C84.4344203,39.7586523 84.8231326,40.3123783 84.7321216,40.7693627 Z" id="HAND" fill="#000000"></path>
            <path d="M17.887748,30 L20.9347964,30.8250341 L23.0459777,31.3722251 C26.6756609,32.2922144 30.9690666,33.263137 31.4440903,32.8336735 L31.4759672,32.7921369 C31.4759672,32.7921369 30.9381653,31.9278135 34.1107345,36.0080562 C36.9662903,39.6810368 38.5692257,44.1271001 39.5637669,48.7836502 C42.1262351,50.2105617 45.1178894,50.7927096 48.056867,50.7635822 C51.2041429,50.732429 54.3092299,50.0323012 57.316434,49.111809 L59.180886,48.5316482 C60.7390552,48.0557292 62.3127761,47.6397619 63.9350768,47.5918535 C66.2065631,47.5245897 68.6551114,48.3281839 69.9045482,50.2217111 C71.1983677,52.1822076 70.7894826,55.0729474 69.0026793,56.595719 C67.1375854,58.1856712 64.4357398,58.1530843 61.983094,58.2798776 C55.7996776,58.5990134 49.7280811,60.4516537 43.5494682,60.391445 C44.1551547,61.3323492 44.7779792,62.2623506 45.4177731,63.1798704 L45.4193126,75.7168778 C44.4154637,75.0585722 43.4158449,74.3958261 42.4626147,73.6734576 C43.0043176,78.0574272 43.7361016,82.458495 44.9838849,87.6527169 C45.4168596,89.4550863 44.938318,91.9077034 43.3178004,92.9549946 C42.4628998,93.5073347 41.390342,93.5476241 40.3763041,93.5520747 C31.7801128,93.5897875 22.4105997,92.2621099 14.2157212,89.632287 C13.6381545,89.4470024 13.0427773,89.2436813 12.5993671,88.8255612 C11.9887238,88.2502655 11.7708352,87.3688169 11.6669796,86.5309371 C11.0924199,81.8943722 13.8834087,80.2971597 13.7770087,75.6256929 C13.6673705,70.8354659 11.354328,66.4279886 9.87629379,61.8762189 C7.61298165,54.9056773 7.33171568,47.2661437 9.39124876,40.2101042 L9.59075662,39.5390719 C10.3222483,37.1350114 11.0899217,35.3358227 13.1012278,33.6322275 C15.0455714,31.9855138 16.3327639,32.3236702 17.887748,30 Z" id="TOP" fill="#001CFF"></path>
            <path d="M31.2273601,5.81872286 L31.2367216,5.82516831 C32.2055245,6.51755207 33.0582727,7.40204737 33.7308202,8.47026908 L33.8827954,8.72003938 L34.4570756,9.69718396 L36.273745,12.7090201 C36.9959859,13.9064579 37.1542919,16.5776296 36.8602951,19.1649132 C36.4801682,22.5104424 33.3085152,24.8913755 29.8517671,24.4700763 L29.820972,24.4954053 L29.6944235,29.0074663 L29.6985135,29.0276831 L31.3305472,32.8924656 C29.8190624,33.3682774 17.8921551,29.9930924 17.887748,30 C19.5400857,28.0660016 20.4338479,26.3322538 20.6230051,23.8964371 L20.6452401,23.5435898 L20.6351355,23.50548 L19.6564219,21.9644635 C19.6925781,21.954154 19.7283058,21.9414941 19.763469,21.9263451 C19.9702372,21.837073 20.1250762,21.6763338 20.229883,21.477759 C20.4179187,21.1219071 20.4456616,20.6451299 20.3268648,20.2455074 C20.1419117,19.6228284 19.7075089,19.1220639 19.3587062,18.5809909 C18.5129012,17.2676278 18.1539024,15.6224 18.3718151,14.0568 C18.442951,13.5456493 18.6113058,12.9894915 19.0433373,12.7370073 C19.2975294,12.5883854 19.6031763,12.5720641 19.894359,12.5886326 C21.6288876,12.6880437 23.255764,13.927714 23.873223,15.6209163 L24.0109745,15.9978304 C24.1584035,16.3775189 24.3491809,16.7381157 24.7121515,16.83289 C25.3035273,16.9871997 25.7756321,16.273023 25.8553043,15.6429252 C25.960111,14.8112852 25.7393529,13.9754412 25.7063933,13.1373716 C25.6731965,12.299302 25.9015425,11.3474785 26.6057872,10.9424157 C26.9560126,10.7408734 27.4027456,10.6874586 27.6571748,10.3652382 C27.99507,9.93742461 27.8049002,9.2919948 27.5435946,8.80928254 L27.3824008,8.51579745 C27.1669825,8.1193799 26.9711409,7.70270427 27.0534687,7.26766974 C27.1476051,6.77259293 27.5817708,6.42638537 28.0239985,6.22187561 C29.0040592,5.76858617 30.1183408,5.78324376 31.2273601,5.81872286 Z" id="FACE" fill="#000000"></path>
            <path d="M20.229883,21.477759 C20.4179187,21.1219071 20.4456616,20.6451299 20.3268648,20.2455074 C20.1419117,19.6228284 19.7075089,19.1220639 19.3587062,18.5809909 C18.5129012,17.2676278 18.1539024,15.6224 18.3718151,14.0568 C18.442951,13.5456493 18.6113058,12.9894915 19.0433373,12.7370073 C19.2975294,12.5883854 19.6031763,12.5720641 19.894359,12.5886326 C21.6288876,12.6880437 23.255764,13.927714 23.873223,15.6209163 C24.0503512,16.1075852 24.2281907,16.7065243 24.7121515,16.83289 C25.3035273,16.9871997 25.7756321,16.273023 25.8553043,15.6429252 C25.960111,14.8112852 25.7393529,13.9754412 25.7063933,13.1373716 C25.6731965,12.299302 25.9015425,11.3474785 26.6057872,10.9424157 C26.9560126,10.7408734 27.4027456,10.6874586 27.6571748,10.3652382 C27.99507,9.93742461 27.8049002,9.2919948 27.5435946,8.80928254 C27.282289,8.32657029 26.9505589,7.8114629 27.0534687,7.26766974 C27.1476051,6.77259293 27.5817708,6.42638537 28.0239985,6.22187561 C30.2813755,5.17781253 33.2508221,6.61630494 35.2279239,5.07370297 C35.8994461,4.5496931 36.3098998,3.43218455 35.706668,2.82483758 C35.4939718,2.61093076 35.2018407,2.51151974 34.9201428,2.41829099 C34.4700902,2.26966903 34.0195633,2.12079978 33.5695106,1.97217782 C31.3114223,1.22610052 29.0388697,0.476808448 26.6904389,0.156566455 C24.3417709,-0.163428247 21.8885334,-0.0338477027 19.7075089,0.929351187 C15.2031882,2.9188082 13.8912064,7.96898734 14.0069207,12.6927422 C14.0612211,14.9126745 14.6426379,17.1820651 16.000858,18.8923304 C16.5277373,19.5553179 17.158475,20.1208727 17.7014785,20.7695173 C17.9772484,21.0986618 18.2347601,21.4537718 18.5773977,21.7057614 C18.9200352,21.9579984 19.3760159,22.0932666 19.763469,21.9263451 C19.9702372,21.837073 20.1250762,21.6763338 20.229883,21.477759 Z" id="HAIR" fill="#FF7FB1"></path>
        </g>
    </g>
</svg>